<?xml version="1.0" encoding="UTF-8" standalone="no"?><svg xmlns="http://www.w3.org/2000/svg" xmlns:xlink="http://www.w3.org/1999/xlink" contentStyleType="text/css" height="752px" preserveAspectRatio="none" style="width:2353px;height:752px;background:#FFFFFF;" version="1.1" viewBox="0 0 2353 752" width="2353px" zoomAndPan="magnify"><defs/><g><!--MD5=[1f2cfc53d9d308f53762fd0fcbaa4873]
cluster Controller--><g id="cluster_Controller"><path d="M1300,54.602 L1371,54.602 A3.75,3.75 0 0 1 1373.5,57.102 L1380.5,79.6699 L2344,79.6699 A2.5,2.5 0 0 1 2346.5,82.1699 L2346.5,287.102 A2.5,2.5 0 0 1 2344,289.602 L1300,289.602 A2.5,2.5 0 0 1 1297.5,287.102 L1297.5,57.102 A2.5,2.5 0 0 1 1300,54.602 " style="stroke:#000000;stroke-width:1.5;fill:none;"/><line style="stroke:#000000;stroke-width:1.5;fill:none;" x1="1297.5" x2="1380.5" y1="79.6699" y2="79.6699"/><text fill="#000000" font-family="sans-serif" font-size="14" font-weight="bold" lengthAdjust="spacing" textLength="70" x="1301.5" y="71.5679">Controller</text></g><!--MD5=[fcfdc41e9e8661e0b08e1357fb9c5ed1]
cluster Entity--><g id="cluster_Entity"><path d="M205,6.602 L247,6.602 A3.75,3.75 0 0 1 249.5,9.102 L256.5,31.6699 L1271,31.6699 A2.5,2.5 0 0 1 1273.5,34.1699 L1273.5,743.102 A2.5,2.5 0 0 1 1271,745.602 L205,745.602 A2.5,2.5 0 0 1 202.5,743.102 L202.5,9.102 A2.5,2.5 0 0 1 205,6.602 " fill="#DDDDDD" style="stroke:#000000;stroke-width:1.5;"/><line style="stroke:#000000;stroke-width:1.5;" x1="202.5" x2="256.5" y1="31.6699" y2="31.6699"/><text fill="#000000" font-family="sans-serif" font-size="14" font-weight="bold" lengthAdjust="spacing" textLength="41" x="206.5" y="23.5679">Entity</text></g><!--MD5=[5103e3471bf31fadd75905833dcba617]
class LoginController--><g id="elem_LoginController"><rect codeLine="3" fill="#F1F1F1" height="181.4754" id="LoginController" rx="2.5" ry="2.5" style="stroke:#181818;stroke-width:0.5;" width="842" x="1488.5" y="92.602"/><ellipse cx="1853.25" cy="108.602" fill="#ADD1B2" rx="11" ry="11" style="stroke:#181818;stroke-width:1.0;"/><path d="M1852.7188,115.5239 Q1850.9688,115.5239 1849.8281,114.7895 Q1848.7031,114.0395 1848.1406,112.6957 Q1847.5938,111.3364 1847.5938,109.5395 Q1847.5938,107.5082 1848.25,106.0551 Q1848.9063,104.602 1850.1875,103.8207 Q1851.4688,103.0395 1853.3438,103.0395 Q1854.2344,103.0395 1854.9063,103.227 Q1855.5781,103.3989 1856.2656,103.7426 L1855.4531,105.7582 Q1854.8281,105.4457 1854.2813,105.3207 Q1853.75,105.1957 1853.2656,105.1957 Q1852.0938,105.1957 1851.3906,105.727 Q1850.6875,106.2582 1850.3906,107.2114 Q1850.0938,108.1645 1850.0938,109.4301 Q1850.0938,111.4457 1850.8125,112.4145 Q1851.5313,113.3676 1853.125,113.3676 Q1853.7188,113.3676 1854.3438,113.2114 Q1854.9688,113.0551 1855.7969,112.6801 L1855.7969,114.8989 Q1855.0625,115.2114 1854.2656,115.3676 Q1853.4844,115.5239 1852.7188,115.5239 Z " fill="#000000"/><text fill="#000000" font-family="sans-serif" font-size="14" lengthAdjust="spacing" textLength="104" x="1873.75" y="114.034">LoginController</text><line style="stroke:#181818;stroke-width:0.5;" x1="1489.5" x2="2329.5" y1="124.602" y2="124.602"/><line style="stroke:#181818;stroke-width:0.5;" x1="1489.5" x2="2329.5" y1="132.602" y2="132.602"/><ellipse cx="1499.5" cy="143.602" fill="#84BE84" rx="3" ry="3" style="stroke:#038048;stroke-width:1.0;"/><text fill="#000000" font-family="sans-serif" font-size="14" lengthAdjust="spacing" textLength="816" x="1508.5" y="151.5679">__construct(EntityManagerInterface, UrlGeneratorInterface, CsrfTokenManagerInterface, UserPasswordEncoderInterface)</text><ellipse cx="1499.5" cy="162.6699" fill="#84BE84" rx="3" ry="3" style="stroke:#038048;stroke-width:1.0;"/><text fill="#000000" font-family="sans-serif" font-size="14" lengthAdjust="spacing" textLength="250" x="1508.5" y="170.6358">?User getUser(UserProviderInterface)</text><ellipse cx="1499.5" cy="181.7378" fill="#84BE84" rx="3" ry="3" style="stroke:#038048;stroke-width:1.0;"/><text fill="#000000" font-family="sans-serif" font-size="14" lengthAdjust="spacing" textLength="203" x="1508.5" y="189.7038">?User getCredentials(Request)</text><ellipse cx="1499.5" cy="200.8057" fill="#84BE84" rx="3" ry="3" style="stroke:#038048;stroke-width:1.0;"/><text fill="#000000" font-family="sans-serif" font-size="14" lengthAdjust="spacing" textLength="248" x="1508.5" y="208.7717">bool checkCredentials(UserInterface)</text><ellipse cx="1499.5" cy="219.8736" fill="#84BE84" rx="3" ry="3" style="stroke:#038048;stroke-width:1.0;"/><text fill="#000000" font-family="sans-serif" font-size="14" lengthAdjust="spacing" textLength="227" x="1508.5" y="227.8396">?string getPassword($credentials)</text><ellipse cx="1499.5" cy="238.9416" fill="#84BE84" rx="3" ry="3" style="stroke:#038048;stroke-width:1.0;"/><text fill="#000000" font-family="sans-serif" font-size="14" lengthAdjust="spacing" textLength="416" x="1508.5" y="246.9075">?Response onAuthenticationSuccess(Request, TokenInterface)</text><polygon fill="#4177AF" points="1499.5,254.0095,1495.5,260.0095,1503.5,260.0095" style="stroke:#1963A0;stroke-width:1.0;"/><text fill="#000000" font-family="sans-serif" font-size="14" lengthAdjust="spacing" textLength="135" x="1508.5" y="265.9754">getLoginUrl(): string</text></g><!--MD5=[e1cb09a2243ad40d3e9f3d8fb554d1d5]
class TokenController--><g id="elem_TokenController"><rect codeLine="13" fill="#F1F1F1" height="86.1358" id="TokenController" rx="2.5" ry="2.5" style="stroke:#181818;stroke-width:0.5;" width="139" x="1314" y="140.102"/><ellipse cx="1329" cy="156.102" fill="#ADD1B2" rx="11" ry="11" style="stroke:#181818;stroke-width:1.0;"/><path d="M1328.4688,163.0239 Q1326.7188,163.0239 1325.5781,162.2895 Q1324.4531,161.5395 1323.8906,160.1957 Q1323.3438,158.8364 1323.3438,157.0395 Q1323.3438,155.0082 1324,153.5551 Q1324.6563,152.102 1325.9375,151.3207 Q1327.2188,150.5395 1329.0938,150.5395 Q1329.9844,150.5395 1330.6563,150.727 Q1331.3281,150.8989 1332.0156,151.2426 L1331.2031,153.2582 Q1330.5781,152.9457 1330.0313,152.8207 Q1329.5,152.6957 1329.0156,152.6957 Q1327.8438,152.6957 1327.1406,153.227 Q1326.4375,153.7582 1326.1406,154.7114 Q1325.8438,155.6645 1325.8438,156.9301 Q1325.8438,158.9457 1326.5625,159.9145 Q1327.2813,160.8676 1328.875,160.8676 Q1329.4688,160.8676 1330.0938,160.7114 Q1330.7188,160.5551 1331.5469,160.1801 L1331.5469,162.3989 Q1330.8125,162.7114 1330.0156,162.8676 Q1329.2344,163.0239 1328.4688,163.0239 Z " fill="#000000"/><text fill="#000000" font-family="sans-serif" font-size="14" lengthAdjust="spacing" textLength="107" x="1343" y="161.534">TokenController</text><line style="stroke:#181818;stroke-width:0.5;" x1="1315" x2="1452" y1="172.102" y2="172.102"/><line style="stroke:#181818;stroke-width:0.5;" x1="1315" x2="1452" y1="180.102" y2="180.102"/><ellipse cx="1325" cy="191.102" fill="#84BE84" rx="3" ry="3" style="stroke:#038048;stroke-width:1.0;"/><text fill="#000000" font-family="sans-serif" font-size="14" lengthAdjust="spacing" textLength="101" x="1334" y="199.0679">void generate()</text><ellipse cx="1325" cy="210.1699" fill="#84BE84" rx="3" ry="3" style="stroke:#038048;stroke-width:1.0;"/><text fill="#000000" font-family="sans-serif" font-size="14" lengthAdjust="spacing" textLength="101" x="1334" y="218.1358">void consume()</text></g><!--MD5=[09a5b4adb0ee554eafb73b413209c7bf]
class Users--><g id="elem_Users"><rect codeLine="32" fill="#F1F1F1" height="276.815" id="Users" rx="2.5" ry="2.5" style="stroke:#181818;stroke-width:0.5;" width="145" x="684" y="44.602"/><ellipse cx="733.25" cy="60.602" fill="#ADD1B2" rx="11" ry="11" style="stroke:#181818;stroke-width:1.0;"/><path d="M732.7188,67.5239 Q730.9688,67.5239 729.8281,66.7895 Q728.7031,66.0395 728.1406,64.6957 Q727.5938,63.3364 727.5938,61.5395 Q727.5938,59.5082 728.25,58.0551 Q728.9063,56.602 730.1875,55.8207 Q731.4688,55.0395 733.3438,55.0395 Q734.2344,55.0395 734.9063,55.227 Q735.5781,55.3989 736.2656,55.7426 L735.4531,57.7582 Q734.8281,57.4457 734.2813,57.3207 Q733.75,57.1957 733.2656,57.1957 Q732.0938,57.1957 731.3906,57.727 Q730.6875,58.2582 730.3906,59.2114 Q730.0938,60.1645 730.0938,61.4301 Q730.0938,63.4457 730.8125,64.4145 Q731.5313,65.3676 733.125,65.3676 Q733.7188,65.3676 734.3438,65.2114 Q734.9688,65.0551 735.7969,64.6801 L735.7969,66.8989 Q735.0625,67.2114 734.2656,67.3676 Q733.4844,67.5239 732.7188,67.5239 Z " fill="#000000"/><text fill="#000000" font-family="sans-serif" font-size="14" lengthAdjust="spacing" textLength="38" x="753.75" y="66.034">Users</text><line style="stroke:#181818;stroke-width:0.5;" x1="685" x2="828" y1="76.602" y2="76.602"/><rect fill="none" height="6" style="stroke:#C82930;stroke-width:1.0;" width="6" x="692" y="84.602"/><text fill="#000000" font-family="sans-serif" font-size="14" lengthAdjust="spacing" textLength="41" x="704" y="95.5679">ID: int</text><rect fill="none" height="6" style="stroke:#C82930;stroke-width:1.0;" width="6" x="692" y="103.6699"/><text fill="#000000" font-family="sans-serif" font-size="14" lengthAdjust="spacing" textLength="116" x="704" y="114.6358">firstName: String</text><rect fill="none" height="6" style="stroke:#C82930;stroke-width:1.0;" width="6" x="692" y="122.7378"/><text fill="#000000" font-family="sans-serif" font-size="14" lengthAdjust="spacing" textLength="113" x="704" y="133.7038">lastName: String</text><rect fill="none" height="6" style="stroke:#C82930;stroke-width:1.0;" width="6" x="692" y="141.8057"/><text fill="#000000" font-family="sans-serif" font-size="14" lengthAdjust="spacing" textLength="117" x="704" y="152.7717">username: String</text><rect fill="none" height="6" style="stroke:#C82930;stroke-width:1.0;" width="6" x="692" y="160.8736"/><text fill="#000000" font-family="sans-serif" font-size="14" lengthAdjust="spacing" textLength="114" x="704" y="171.8396">password: String</text><rect fill="none" height="6" style="stroke:#C82930;stroke-width:1.0;" width="6" x="692" y="179.9416"/><text fill="#000000" font-family="sans-serif" font-size="14" lengthAdjust="spacing" textLength="86" x="704" y="190.9075">email: String</text><rect fill="none" height="6" style="stroke:#C82930;stroke-width:1.0;" width="6" x="692" y="199.0095"/><text fill="#000000" font-family="sans-serif" font-size="14" lengthAdjust="spacing" textLength="90" x="704" y="209.9754">status: String</text><rect fill="none" height="6" style="stroke:#C82930;stroke-width:1.0;" width="6" x="692" y="218.0774"/><text fill="#000000" font-family="sans-serif" font-size="14" lengthAdjust="spacing" textLength="91" x="704" y="229.0433">avatar: String</text><line style="stroke:#181818;stroke-width:0.5;" x1="685" x2="828" y1="237.1453" y2="237.1453"/><ellipse cx="695" cy="248.1453" fill="#84BE84" rx="3" ry="3" style="stroke:#038048;stroke-width:1.0;"/><text fill="#000000" font-family="sans-serif" font-size="14" lengthAdjust="spacing" textLength="113" x="704" y="256.1113">void create(User)</text><ellipse cx="695" cy="267.2132" fill="#84BE84" rx="3" ry="3" style="stroke:#038048;stroke-width:1.0;"/><text fill="#000000" font-family="sans-serif" font-size="14" lengthAdjust="spacing" textLength="93" x="704" y="275.1792">void get(User)</text><ellipse cx="695" cy="286.2812" fill="#84BE84" rx="3" ry="3" style="stroke:#038048;stroke-width:1.0;"/><text fill="#000000" font-family="sans-serif" font-size="14" lengthAdjust="spacing" textLength="119" x="704" y="294.2471">void update(User)</text><ellipse cx="695" cy="305.3491" fill="#84BE84" rx="3" ry="3" style="stroke:#038048;stroke-width:1.0;"/><text fill="#000000" font-family="sans-serif" font-size="14" lengthAdjust="spacing" textLength="113" x="704" y="313.315">void delete(User)</text></g><!--MD5=[56b786b736faa83d3def511ea8a11420]
class Podcaster--><g id="elem_Podcaster"><rect codeLine="47" fill="#F1F1F1" height="124.2717" id="Podcaster" rx="2.5" ry="2.5" style="stroke:#181818;stroke-width:0.5;" width="144" x="413.5" y="448.602"/><ellipse cx="449.2" cy="464.602" fill="#ADD1B2" rx="11" ry="11" style="stroke:#181818;stroke-width:1.0;"/><path d="M448.6688,471.5239 Q446.9188,471.5239 445.7781,470.7895 Q444.6531,470.0395 444.0906,468.6957 Q443.5438,467.3364 443.5438,465.5395 Q443.5438,463.5082 444.2,462.0551 Q444.8563,460.602 446.1375,459.8207 Q447.4188,459.0395 449.2938,459.0395 Q450.1844,459.0395 450.8563,459.227 Q451.5281,459.3989 452.2156,459.7426 L451.4031,461.7582 Q450.7781,461.4457 450.2313,461.3207 Q449.7,461.1957 449.2156,461.1957 Q448.0438,461.1957 447.3406,461.727 Q446.6375,462.2582 446.3406,463.2114 Q446.0438,464.1645 446.0438,465.4301 Q446.0438,467.4457 446.7625,468.4145 Q447.4813,469.3676 449.075,469.3676 Q449.6688,469.3676 450.2938,469.2114 Q450.9188,469.0551 451.7469,468.6801 L451.7469,470.8989 Q451.0125,471.2114 450.2156,471.3676 Q449.4344,471.5239 448.6688,471.5239 Z " fill="#000000"/><text fill="#000000" font-family="sans-serif" font-size="14" lengthAdjust="spacing" textLength="66" x="467.8" y="470.034">Podcaster</text><line style="stroke:#181818;stroke-width:0.5;" x1="414.5" x2="556.5" y1="480.602" y2="480.602"/><rect fill="none" height="6" style="stroke:#C82930;stroke-width:1.0;" width="6" x="421.5" y="488.602"/><text fill="#000000" font-family="sans-serif" font-size="14" lengthAdjust="spacing" textLength="41" x="433.5" y="499.5679">ID: int</text><rect fill="none" height="6" style="stroke:#C82930;stroke-width:1.0;" width="6" x="421.5" y="507.6699"/><text fill="#000000" font-family="sans-serif" font-size="14" lengthAdjust="spacing" textLength="116" x="433.5" y="518.6358">firstName: String</text><rect fill="none" height="6" style="stroke:#C82930;stroke-width:1.0;" width="6" x="421.5" y="526.7378"/><text fill="#000000" font-family="sans-serif" font-size="14" lengthAdjust="spacing" textLength="113" x="433.5" y="537.7038">lastName: String</text><rect fill="none" height="6" style="stroke:#C82930;stroke-width:1.0;" width="6" x="421.5" y="545.8057"/><text fill="#000000" font-family="sans-serif" font-size="14" lengthAdjust="spacing" textLength="118" x="433.5" y="556.7717">biography: String</text><line style="stroke:#181818;stroke-width:0.5;" x1="414.5" x2="556.5" y1="564.8736" y2="564.8736"/></g><!--MD5=[da547346deef918ea16944ba046651ef]
class Administrator--><g id="elem_Administrator"><rect codeLine="54" fill="#F1F1F1" height="105.2038" id="Administrator" rx="2.5" ry="2.5" style="stroke:#181818;stroke-width:0.5;" width="142" x="592.5" y="458.102"/><ellipse cx="615.15" cy="474.102" fill="#ADD1B2" rx="11" ry="11" style="stroke:#181818;stroke-width:1.0;"/><path d="M614.6188,481.0239 Q612.8688,481.0239 611.7281,480.2895 Q610.6031,479.5395 610.0406,478.1957 Q609.4938,476.8364 609.4938,475.0395 Q609.4938,473.0082 610.15,471.5551 Q610.8063,470.102 612.0875,469.3207 Q613.3688,468.5395 615.2438,468.5395 Q616.1344,468.5395 616.8063,468.727 Q617.4781,468.8989 618.1656,469.2426 L617.3531,471.2582 Q616.7281,470.9457 616.1813,470.8207 Q615.65,470.6957 615.1656,470.6957 Q613.9938,470.6957 613.2906,471.227 Q612.5875,471.7582 612.2906,472.7114 Q611.9938,473.6645 611.9938,474.9301 Q611.9938,476.9457 612.7125,477.9145 Q613.4313,478.8676 615.025,478.8676 Q615.6188,478.8676 616.2438,478.7114 Q616.8688,478.5551 617.6969,478.1801 L617.6969,480.3989 Q616.9625,480.7114 616.1656,480.8676 Q615.3844,481.0239 614.6188,481.0239 Z " fill="#000000"/><text fill="#000000" font-family="sans-serif" font-size="14" lengthAdjust="spacing" textLength="93" x="630.85" y="479.534">Administrator</text><line style="stroke:#181818;stroke-width:0.5;" x1="593.5" x2="733.5" y1="490.102" y2="490.102"/><rect fill="none" height="6" style="stroke:#C82930;stroke-width:1.0;" width="6" x="600.5" y="498.102"/><text fill="#000000" font-family="sans-serif" font-size="14" lengthAdjust="spacing" textLength="41" x="612.5" y="509.0679">ID: int</text><rect fill="none" height="6" style="stroke:#C82930;stroke-width:1.0;" width="6" x="600.5" y="517.1699"/><text fill="#000000" font-family="sans-serif" font-size="14" lengthAdjust="spacing" textLength="116" x="612.5" y="528.1358">firstName: String</text><rect fill="none" height="6" style="stroke:#C82930;stroke-width:1.0;" width="6" x="600.5" y="536.2378"/><text fill="#000000" font-family="sans-serif" font-size="14" lengthAdjust="spacing" textLength="113" x="612.5" y="547.2038">lastName: String</text><line style="stroke:#181818;stroke-width:0.5;" x1="593.5" x2="733.5" y1="555.3057" y2="555.3057"/></g><!--MD5=[40ce7c85f33a27b949ebdd41bd3f4b23]
class Tokens--><g id="elem_Tokens"><rect codeLine="60" fill="#F1F1F1" height="219.6113" id="Tokens" rx="2.5" ry="2.5" style="stroke:#181818;stroke-width:0.5;" width="160" x="218.5" y="400.602"/><ellipse cx="270.75" cy="416.602" fill="#ADD1B2" rx="11" ry="11" style="stroke:#181818;stroke-width:1.0;"/><path d="M270.2188,423.5239 Q268.4688,423.5239 267.3281,422.7895 Q266.2031,422.0395 265.6406,420.6957 Q265.0938,419.3364 265.0938,417.5395 Q265.0938,415.5082 265.75,414.0551 Q266.4063,412.602 267.6875,411.8207 Q268.9688,411.0395 270.8438,411.0395 Q271.7344,411.0395 272.4063,411.227 Q273.0781,411.3989 273.7656,411.7426 L272.9531,413.7582 Q272.3281,413.4457 271.7813,413.3207 Q271.25,413.1957 270.7656,413.1957 Q269.5938,413.1957 268.8906,413.727 Q268.1875,414.2582 267.8906,415.2114 Q267.5938,416.1645 267.5938,417.4301 Q267.5938,419.4457 268.3125,420.4145 Q269.0313,421.3676 270.625,421.3676 Q271.2188,421.3676 271.8438,421.2114 Q272.4688,421.0551 273.2969,420.6801 L273.2969,422.8989 Q272.5625,423.2114 271.7656,423.3676 Q270.9844,423.5239 270.2188,423.5239 Z " fill="#000000"/><text fill="#000000" font-family="sans-serif" font-size="14" lengthAdjust="spacing" textLength="47" x="291.25" y="422.034">Tokens</text><line style="stroke:#181818;stroke-width:0.5;" x1="219.5" x2="377.5" y1="432.602" y2="432.602"/><rect fill="none" height="6" style="stroke:#C82930;stroke-width:1.0;" width="6" x="226.5" y="440.602"/><text fill="#000000" font-family="sans-serif" font-size="14" lengthAdjust="spacing" textLength="41" x="238.5" y="451.5679">ID: int</text><rect fill="none" height="6" style="stroke:#C82930;stroke-width:1.0;" width="6" x="226.5" y="459.6699"/><text fill="#000000" font-family="sans-serif" font-size="14" lengthAdjust="spacing" textLength="71" x="238.5" y="470.6358">userID: int</text><rect fill="none" height="6" style="stroke:#C82930;stroke-width:1.0;" width="6" x="226.5" y="478.7378"/><text fill="#000000" font-family="sans-serif" font-size="14" lengthAdjust="spacing" textLength="86" x="238.5" y="489.7038">token: String</text><rect fill="none" height="6" style="stroke:#C82930;stroke-width:1.0;" width="6" x="226.5" y="497.8057"/><text fill="#000000" font-family="sans-serif" font-size="14" lengthAdjust="spacing" textLength="132" x="238.5" y="508.7717">consumed: boolean</text><rect fill="none" height="6" style="stroke:#C82930;stroke-width:1.0;" width="6" x="226.5" y="516.8736"/><text fill="#000000" font-family="sans-serif" font-size="14" lengthAdjust="spacing" textLength="134" x="238.5" y="527.8396">created: Timestamp</text><line style="stroke:#181818;stroke-width:0.5;" x1="219.5" x2="377.5" y1="535.9416" y2="535.9416"/><ellipse cx="229.5" cy="546.9416" fill="#84BE84" rx="3" ry="3" style="stroke:#038048;stroke-width:1.0;"/><text fill="#000000" font-family="sans-serif" font-size="14" lengthAdjust="spacing" textLength="122" x="238.5" y="554.9075">void create(Token)</text><ellipse cx="229.5" cy="566.0095" fill="#84BE84" rx="3" ry="3" style="stroke:#038048;stroke-width:1.0;"/><text fill="#000000" font-family="sans-serif" font-size="14" lengthAdjust="spacing" textLength="102" x="238.5" y="573.9754">void get(Token)</text><ellipse cx="229.5" cy="585.0774" fill="#84BE84" rx="3" ry="3" style="stroke:#038048;stroke-width:1.0;"/><text fill="#000000" font-family="sans-serif" font-size="14" lengthAdjust="spacing" textLength="128" x="238.5" y="593.0433">void update(Token)</text><ellipse cx="229.5" cy="604.1453" fill="#84BE84" rx="3" ry="3" style="stroke:#038048;stroke-width:1.0;"/><text fill="#000000" font-family="sans-serif" font-size="14" lengthAdjust="spacing" textLength="122" x="238.5" y="612.1113">void delete(Token)</text></g><!--MD5=[7bff1aba3b0d0725284345139f4478e9]
class History--><g id="elem_History"><rect codeLine="72" fill="#F1F1F1" height="219.6113" id="History" rx="2.5" ry="2.5" style="stroke:#181818;stroke-width:0.5;" width="161" x="770" y="400.602"/><ellipse cx="822.75" cy="416.602" fill="#ADD1B2" rx="11" ry="11" style="stroke:#181818;stroke-width:1.0;"/><path d="M822.2188,423.5239 Q820.4688,423.5239 819.3281,422.7895 Q818.2031,422.0395 817.6406,420.6957 Q817.0938,419.3364 817.0938,417.5395 Q817.0938,415.5082 817.75,414.0551 Q818.4063,412.602 819.6875,411.8207 Q820.9688,411.0395 822.8438,411.0395 Q823.7344,411.0395 824.4063,411.227 Q825.0781,411.3989 825.7656,411.7426 L824.9531,413.7582 Q824.3281,413.4457 823.7813,413.3207 Q823.25,413.1957 822.7656,413.1957 Q821.5938,413.1957 820.8906,413.727 Q820.1875,414.2582 819.8906,415.2114 Q819.5938,416.1645 819.5938,417.4301 Q819.5938,419.4457 820.3125,420.4145 Q821.0313,421.3676 822.625,421.3676 Q823.2188,421.3676 823.8438,421.2114 Q824.4688,421.0551 825.2969,420.6801 L825.2969,422.8989 Q824.5625,423.2114 823.7656,423.3676 Q822.9844,423.5239 822.2188,423.5239 Z " fill="#000000"/><text fill="#000000" font-family="sans-serif" font-size="14" lengthAdjust="spacing" textLength="47" x="843.25" y="422.034">History</text><line style="stroke:#181818;stroke-width:0.5;" x1="771" x2="930" y1="432.602" y2="432.602"/><rect fill="none" height="6" style="stroke:#C82930;stroke-width:1.0;" width="6" x="778" y="440.602"/><text fill="#000000" font-family="sans-serif" font-size="14" lengthAdjust="spacing" textLength="41" x="790" y="451.5679">ID: int</text><rect fill="none" height="6" style="stroke:#C82930;stroke-width:1.0;" width="6" x="778" y="459.6699"/><text fill="#000000" font-family="sans-serif" font-size="14" lengthAdjust="spacing" textLength="71" x="790" y="470.6358">userID: int</text><rect fill="none" height="6" style="stroke:#C82930;stroke-width:1.0;" width="6" x="778" y="478.7378"/><text fill="#000000" font-family="sans-serif" font-size="14" lengthAdjust="spacing" textLength="96" x="790" y="489.7038">activity: String</text><rect fill="none" height="6" style="stroke:#C82930;stroke-width:1.0;" width="6" x="778" y="497.8057"/><text fill="#000000" font-family="sans-serif" font-size="14" lengthAdjust="spacing" textLength="125" x="790" y="508.7717">description: String</text><rect fill="none" height="6" style="stroke:#C82930;stroke-width:1.0;" width="6" x="778" y="516.8736"/><text fill="#000000" font-family="sans-serif" font-size="14" lengthAdjust="spacing" textLength="69" x="790" y="527.8396">time: Date</text><line style="stroke:#181818;stroke-width:0.5;" x1="771" x2="930" y1="535.9416" y2="535.9416"/><ellipse cx="781" cy="546.9416" fill="#84BE84" rx="3" ry="3" style="stroke:#038048;stroke-width:1.0;"/><text fill="#000000" font-family="sans-serif" font-size="14" lengthAdjust="spacing" textLength="129" x="790" y="554.9075">void create(History)</text><ellipse cx="781" cy="566.0095" fill="#84BE84" rx="3" ry="3" style="stroke:#038048;stroke-width:1.0;"/><text fill="#000000" font-family="sans-serif" font-size="14" lengthAdjust="spacing" textLength="109" x="790" y="573.9754">void get(History)</text><ellipse cx="781" cy="585.0774" fill="#84BE84" rx="3" ry="3" style="stroke:#038048;stroke-width:1.0;"/><text fill="#000000" font-family="sans-serif" font-size="14" lengthAdjust="spacing" textLength="135" x="790" y="593.0433">void update(History)</text><ellipse cx="781" cy="604.1453" fill="#84BE84" rx="3" ry="3" style="stroke:#038048;stroke-width:1.0;"/><text fill="#000000" font-family="sans-serif" font-size="14" lengthAdjust="spacing" textLength="129" x="790" y="612.1113">void delete(History)</text></g><!--MD5=[787748180b332c0a2cec62d36be3dc2a]
class Flags--><g id="elem_Flags"><rect codeLine="84" fill="#F1F1F1" height="162.4075" id="Flags" rx="2.5" ry="2.5" style="stroke:#181818;stroke-width:0.5;" width="151" x="966" y="429.602"/><ellipse cx="1019.75" cy="445.602" fill="#ADD1B2" rx="11" ry="11" style="stroke:#181818;stroke-width:1.0;"/><path d="M1019.2188,452.5239 Q1017.4688,452.5239 1016.3281,451.7895 Q1015.2031,451.0395 1014.6406,449.6957 Q1014.0938,448.3364 1014.0938,446.5395 Q1014.0938,444.5082 1014.75,443.0551 Q1015.4063,441.602 1016.6875,440.8207 Q1017.9688,440.0395 1019.8438,440.0395 Q1020.7344,440.0395 1021.4063,440.227 Q1022.0781,440.3989 1022.7656,440.7426 L1021.9531,442.7582 Q1021.3281,442.4457 1020.7813,442.3207 Q1020.25,442.1957 1019.7656,442.1957 Q1018.5938,442.1957 1017.8906,442.727 Q1017.1875,443.2582 1016.8906,444.2114 Q1016.5938,445.1645 1016.5938,446.4301 Q1016.5938,448.4457 1017.3125,449.4145 Q1018.0313,450.3676 1019.625,450.3676 Q1020.2188,450.3676 1020.8438,450.2114 Q1021.4688,450.0551 1022.2969,449.6801 L1022.2969,451.8989 Q1021.5625,452.2114 1020.7656,452.3676 Q1019.9844,452.5239 1019.2188,452.5239 Z " fill="#000000"/><text fill="#000000" font-family="sans-serif" font-size="14" lengthAdjust="spacing" textLength="35" x="1040.25" y="451.034">Flags</text><line style="stroke:#181818;stroke-width:0.5;" x1="967" x2="1116" y1="461.602" y2="461.602"/><rect fill="none" height="6" style="stroke:#C82930;stroke-width:1.0;" width="6" x="974" y="469.602"/><text fill="#000000" font-family="sans-serif" font-size="14" lengthAdjust="spacing" textLength="41" x="986" y="480.5679">ID: int</text><rect fill="none" height="6" style="stroke:#C82930;stroke-width:1.0;" width="6" x="974" y="488.6699"/><text fill="#000000" font-family="sans-serif" font-size="14" lengthAdjust="spacing" textLength="93" x="986" y="499.6358">flaggedID: int</text><rect fill="none" height="6" style="stroke:#C82930;stroke-width:1.0;" width="6" x="974" y="507.7378"/><text fill="#000000" font-family="sans-serif" font-size="14" lengthAdjust="spacing" textLength="90" x="986" y="518.7038">flaggerID: int</text><rect fill="none" height="6" style="stroke:#C82930;stroke-width:1.0;" width="6" x="974" y="526.8057"/><text fill="#000000" font-family="sans-serif" font-size="14" lengthAdjust="spacing" textLength="111" x="986" y="537.7717">offense: Offense</text><rect fill="none" height="6" style="stroke:#C82930;stroke-width:1.0;" width="6" x="974" y="545.8736"/><text fill="#000000" font-family="sans-serif" font-size="14" lengthAdjust="spacing" textLength="125" x="986" y="556.8396">description: String</text><rect fill="none" height="6" style="stroke:#C82930;stroke-width:1.0;" width="6" x="974" y="564.9416"/><text fill="#000000" font-family="sans-serif" font-size="14" lengthAdjust="spacing" textLength="113" x="986" y="575.9075">time: Timestamp</text><line style="stroke:#181818;stroke-width:0.5;" x1="967" x2="1116" y1="584.0095" y2="584.0095"/></g><!--MD5=[51fd3fce36c976f35b405d5800336138]
class UserStatus--><g id="elem_UserStatus"><rect fill="#F1F1F1" height="48" id="UserStatus" rx="2.5" ry="2.5" style="stroke:#181818;stroke-width:0.5;" width="105" x="1152" y="486.602"/><ellipse cx="1167" cy="502.602" fill="#ADD1B2" rx="11" ry="11" style="stroke:#181818;stroke-width:1.0;"/><path d="M1166.4688,509.5239 Q1164.7188,509.5239 1163.5781,508.7895 Q1162.4531,508.0395 1161.8906,506.6957 Q1161.3438,505.3364 1161.3438,503.5395 Q1161.3438,501.5082 1162,500.0551 Q1162.6563,498.602 1163.9375,497.8207 Q1165.2188,497.0395 1167.0938,497.0395 Q1167.9844,497.0395 1168.6563,497.227 Q1169.3281,497.3989 1170.0156,497.7426 L1169.2031,499.7582 Q1168.5781,499.4457 1168.0313,499.3207 Q1167.5,499.1957 1167.0156,499.1957 Q1165.8438,499.1957 1165.1406,499.727 Q1164.4375,500.2582 1164.1406,501.2114 Q1163.8438,502.1645 1163.8438,503.4301 Q1163.8438,505.4457 1164.5625,506.4145 Q1165.2813,507.3676 1166.875,507.3676 Q1167.4688,507.3676 1168.0938,507.2114 Q1168.7188,507.0551 1169.5469,506.6801 L1169.5469,508.8989 Q1168.8125,509.2114 1168.0156,509.3676 Q1167.2344,509.5239 1166.4688,509.5239 Z " fill="#000000"/><text fill="#000000" font-family="sans-serif" font-size="14" lengthAdjust="spacing" textLength="73" x="1181" y="508.034">UserStatus</text><line style="stroke:#181818;stroke-width:0.5;" x1="1153" x2="1256" y1="518.602" y2="518.602"/><line style="stroke:#181818;stroke-width:0.5;" x1="1153" x2="1256" y1="526.602" y2="526.602"/></g><!--MD5=[a369faf6373d890c6ba8a9ef2654171b]
class Activities--><g id="elem_Activities"><rect fill="#F1F1F1" height="48" id="Activities" rx="2.5" ry="2.5" style="stroke:#181818;stroke-width:0.5;" width="92" x="804.5" y="681.602"/><ellipse cx="819.5" cy="697.602" fill="#ADD1B2" rx="11" ry="11" style="stroke:#181818;stroke-width:1.0;"/><path d="M818.9688,704.5239 Q817.2188,704.5239 816.0781,703.7895 Q814.9531,703.0395 814.3906,701.6957 Q813.8438,700.3364 813.8438,698.5395 Q813.8438,696.5082 814.5,695.0551 Q815.1563,693.602 816.4375,692.8207 Q817.7188,692.0395 819.5938,692.0395 Q820.4844,692.0395 821.1563,692.227 Q821.8281,692.3989 822.5156,692.7426 L821.7031,694.7582 Q821.0781,694.4457 820.5313,694.3207 Q820,694.1957 819.5156,694.1957 Q818.3438,694.1957 817.6406,694.727 Q816.9375,695.2582 816.6406,696.2114 Q816.3438,697.1645 816.3438,698.4301 Q816.3438,700.4457 817.0625,701.4145 Q817.7813,702.3676 819.375,702.3676 Q819.9688,702.3676 820.5938,702.2114 Q821.2188,702.0551 822.0469,701.6801 L822.0469,703.8989 Q821.3125,704.2114 820.5156,704.3676 Q819.7344,704.5239 818.9688,704.5239 Z " fill="#000000"/><text fill="#000000" font-family="sans-serif" font-size="14" lengthAdjust="spacing" textLength="60" x="833.5" y="703.034">Activities</text><line style="stroke:#181818;stroke-width:0.5;" x1="805.5" x2="895.5" y1="713.602" y2="713.602"/><line style="stroke:#181818;stroke-width:0.5;" x1="805.5" x2="895.5" y1="721.602" y2="721.602"/></g><!--MD5=[0bc995f86cefd7304b6bfe9f2b552bfd]
class Offense--><g id="elem_Offense"><rect fill="#F1F1F1" height="48" id="Offense" rx="2.5" ry="2.5" style="stroke:#181818;stroke-width:0.5;" width="85" x="999" y="681.602"/><ellipse cx="1014" cy="697.602" fill="#ADD1B2" rx="11" ry="11" style="stroke:#181818;stroke-width:1.0;"/><path d="M1013.4688,704.5239 Q1011.7188,704.5239 1010.5781,703.7895 Q1009.4531,703.0395 1008.8906,701.6957 Q1008.3438,700.3364 1008.3438,698.5395 Q1008.3438,696.5082 1009,695.0551 Q1009.6563,693.602 1010.9375,692.8207 Q1012.2188,692.0395 1014.0938,692.0395 Q1014.9844,692.0395 1015.6563,692.227 Q1016.3281,692.3989 1017.0156,692.7426 L1016.2031,694.7582 Q1015.5781,694.4457 1015.0313,694.3207 Q1014.5,694.1957 1014.0156,694.1957 Q1012.8438,694.1957 1012.1406,694.727 Q1011.4375,695.2582 1011.1406,696.2114 Q1010.8438,697.1645 1010.8438,698.4301 Q1010.8438,700.4457 1011.5625,701.4145 Q1012.2813,702.3676 1013.875,702.3676 Q1014.4688,702.3676 1015.0938,702.2114 Q1015.7188,702.0551 1016.5469,701.6801 L1016.5469,703.8989 Q1015.8125,704.2114 1015.0156,704.3676 Q1014.2344,704.5239 1013.4688,704.5239 Z " fill="#000000"/><text fill="#000000" font-family="sans-serif" font-size="14" lengthAdjust="spacing" textLength="53" x="1028" y="703.034">Offense</text><line style="stroke:#181818;stroke-width:0.5;" x1="1000" x2="1083" y1="713.602" y2="713.602"/><line style="stroke:#181818;stroke-width:0.5;" x1="1000" x2="1083" y1="721.602" y2="721.602"/></g><path d="M6,456.102 L6,554.6321 A0,0 0 0 0 6,554.6321 L183,554.6321 A0,0 0 0 0 183,554.6321 L183,509.367 L222.5,484.2718 L183,501.367 L183,466.102 L173,456.102 L6,456.102 A0,0 0 0 0 6,456.102 " fill="#FEFFDD" style="stroke:#181818;stroke-width:0.5;"/><path d="M173,456.102 L173,466.102 L183,466.102 L173,456.102 " fill="#FEFFDD" style="stroke:#181818;stroke-width:0.5;"/><text fill="#000000" font-family="sans-serif" font-size="13" lengthAdjust="spacing" textLength="151" x="12" y="474.999">Tokens are secure strings</text><text fill="#000000" font-family="sans-serif" font-size="13" lengthAdjust="spacing" textLength="135" x="12" y="492.705">of text that can allow a</text><text fill="#000000" font-family="sans-serif" font-size="13" lengthAdjust="spacing" textLength="139" x="12" y="510.411">user that has forgotten</text><text fill="#000000" font-family="sans-serif" font-size="13" lengthAdjust="spacing" textLength="153" x="12" y="528.117">their password to recover</text><text fill="#000000" font-family="sans-serif" font-size="13" lengthAdjust="spacing" textLength="82" x="12" y="545.8231">their account.</text><!--MD5=[4b04aa9ae0237c9635b1b3153a1cc184]
reverse link Users to Podcaster--><g id="link_Users_Podcaster"><path codeLine="21" d="M670.82,286.322 C640.65,322.392 606.52,363.262 575.5,400.602 C562.64,416.082 548.78,432.822 535.89,448.442 " fill="none" id="Users-backto-Podcaster" style="stroke:#181818;stroke-width:1.0;"/><polygon fill="none" points="665.73,281.492,683.94,270.652,676.47,290.482,665.73,281.492" style="stroke:#181818;stroke-width:1.0;"/></g><!--MD5=[492aa0edd302017a4389883eafe7768a]
reverse link Users to Administrator--><g id="link_Users_Administrator"><path codeLine="22" d="M711.67,341.012 C699.6,383.272 687.37,426.052 678.26,457.942 " fill="none" id="Users-backto-Administrator" style="stroke:#181818;stroke-width:1.0;"/><polygon fill="none" points="704.97,338.982,717.19,321.672,718.43,342.822,704.97,338.982" style="stroke:#181818;stroke-width:1.0;"/></g><!--MD5=[d65ac18829e36a7fc84932f8fcba002a]
link Users to Tokens--><g id="link_Users_Tokens"><path codeLine="24" d="M683.74,219.642 C607.95,258.472 487.77,325.282 396.5,400.602 C391.82,404.462 387.17,408.552 382.57,412.782 " fill="none" id="Users-to-Tokens" style="stroke:#181818;stroke-width:1.0;"/><polygon fill="#181818" points="378.72,416.372,388.0283,413.154,382.3748,412.9599,382.569,407.3064,378.72,416.372" style="stroke:#181818;stroke-width:1.0;"/><text fill="#000000" font-family="sans-serif" font-size="13" lengthAdjust="spacing" textLength="61" x="460.5" y="366.499">Generates</text><text fill="#000000" font-family="sans-serif" font-size="13" lengthAdjust="spacing" textLength="7" x="668.8757" y="219.4766">1</text><text fill="#000000" font-family="sans-serif" font-size="13" lengthAdjust="spacing" textLength="7" x="386.4379" y="403.849">*</text></g><!--MD5=[2eaef4b88f9fd0cb09de08d97ee15b2a]
link Users to History--><g id="link_Users_History"><path codeLine="25" d="M796.23,321.672 C803.32,346.212 810.63,371.532 817.5,395.342 " fill="none" id="Users-to-History" style="stroke:#181818;stroke-width:1.0;"/><polygon fill="#181818" points="818.96,400.392,820.3145,390.6367,817.577,395.5871,812.6266,392.8495,818.96,400.392" style="stroke:#181818;stroke-width:1.0;"/><text fill="#000000" font-family="sans-serif" font-size="13" lengthAdjust="spacing" textLength="29" x="809.5" y="366.499">Logs</text><text fill="#000000" font-family="sans-serif" font-size="13" lengthAdjust="spacing" textLength="7" x="791.0981" y="343.1753">1</text><text fill="#000000" font-family="sans-serif" font-size="13" lengthAdjust="spacing" textLength="7" x="809.3868" y="388.6114">*</text></g><!--MD5=[9ffbb35f2bdd328aee727915645f22c4]
link Users to Flags--><g id="link_Users_Flags"><path codeLine="26" d="M829.12,265.252 C865.2,305.752 909.35,355.592 948.5,400.602 C955.45,408.582 962.65,416.922 969.84,425.282 " fill="none" id="Users-to-Flags" style="stroke:#181818;stroke-width:1.0;"/><polygon fill="#181818" points="973.36,429.382,970.5223,419.9508,970.099,425.5918,964.458,425.1684,973.36,429.382" style="stroke:#181818;stroke-width:1.0;"/><text fill="#000000" font-family="sans-serif" font-size="13" lengthAdjust="spacing" textLength="31" x="917.5" y="366.499">Flags</text><text fill="#000000" font-family="sans-serif" font-size="13" lengthAdjust="spacing" textLength="7" x="836.9699" y="269.7901">1</text><text fill="#000000" font-family="sans-serif" font-size="13" lengthAdjust="spacing" textLength="7" x="959.5318" y="417.7418">*</text></g><!--MD5=[b01d2ea2ac3e67ce209d39b5ab2e3cd9]
link Users to UserStatus--><g id="link_Users_UserStatus"><path codeLine="28" d="M829.33,213.172 C910.79,248.362 1043.23,313.852 1134.5,400.602 C1159.26,424.132 1179.28,458.112 1191.47,481.852 " fill="none" id="Users-to-UserStatus" style="stroke:#181818;stroke-width:1.0;"/><polygon fill="#181818" points="1193.8,486.462,1193.3025,476.6257,1191.5411,482.0013,1186.1654,480.24,1193.8,486.462" style="stroke:#181818;stroke-width:1.0;"/></g><!--MD5=[a0da37843c666de0986ea4ffd10a9893]
link History to Activities--><g id="link_History_Activities"><path codeLine="29" d="M850.5,620.792 C850.5,641.302 850.5,661.032 850.5,676.192 " fill="none" id="History-to-Activities" style="stroke:#181818;stroke-width:1.0;"/><polygon fill="#181818" points="850.5,681.562,854.5,672.562,850.5,676.562,846.5,672.562,850.5,681.562" style="stroke:#181818;stroke-width:1.0;"/></g><!--MD5=[674360f5db910bb3f280b13e156ca089]
link Flags to Offense--><g id="link_Flags_Offense"><path codeLine="30" d="M1041.5,591.772 C1041.5,621.692 1041.5,653.762 1041.5,676.032 " fill="none" id="Flags-to-Offense" style="stroke:#181818;stroke-width:1.0;"/><polygon fill="#181818" points="1041.5,681.192,1045.5,672.192,1041.5,676.192,1037.5,672.192,1041.5,681.192" style="stroke:#181818;stroke-width:1.0;"/></g><!--MD5=[c41ec5659c77a2c9209c6dba42ed7761]
@startuml
package Controller {

   class LoginController {
      + __construct(EntityManagerInterface, UrlGeneratorInterface, CsrfTokenManagerInterface, UserPasswordEncoderInterface)
      + ?User getUser(UserProviderInterface)
      + ?User getCredentials(Request)
      + bool checkCredentials(UserInterface)
      + ?string getPassword($credentials)
      + ?Response onAuthenticationSuccess(Request, TokenInterface)
      ~ getLoginUrl(): string
   }

   class TokenController {
      + void generate()
      + void consume()
   }
}

package Entity #DDDDDD {

Users <|- - Podcaster
Users <|- - Administrator

Users "1" - -> "*" Tokens: Generates
Users "1" - -> "*" History: Logs
Users "1" - -> "*" Flags: Flags

Users - -> UserStatus
History - -> Activities
Flags - -> Offense

   class Users {
      - ID: int 
      - firstName: String 
      - lastName: String 
      - username: String 
      - password: String 
      - email: String 
      - status: String
      - avatar: String
      + void create(User)
      + void get(User)
      + void update(User)
      + void delete(User)
   }

   class Podcaster {
      - ID: int
      - firstName: String 
      - lastName: String 
      - biography: String 
   }

   class Administrator {
      - ID: int
      - firstName: String 
      - lastName: String 
   }

   class Tokens {
      - ID: int 
      - userID: int 
      - token: String 
      - consumed: boolean 
      - created: Timestamp 
      + void create(Token)
      + void get(Token)
      + void update(Token)
      + void delete(Token)
   }

    class History {
      - ID: int
      - userID: int
      - activity: String
      - description: String
      - time: Date
      + void create(History)
      + void get(History)
      + void update(History)
      + void delete(History)
    }

    class Flags {
      - ID: int
      - flaggedID: int
      - flaggerID: int
      -	offense: Offense
      - description: String
      - time: Timestamp
    }
}

note left of Tokens::token
   Tokens are secure strings 
   of text that can allow a 
   user that has forgotten 
   their password to recover 
   their account.
end note
@enduml

PlantUML version 1.2022.4(Sat Apr 09 14:29:17 CET 2022)
(GPL source distribution)
Java Runtime: OpenJDK Runtime Environment
JVM: OpenJDK 64-Bit Server VM
Default Encoding: UTF-8
Language: en
Country: US
--></g></svg>