<?xml version="1.0" encoding="UTF-8" standalone="no"?><svg xmlns="http://www.w3.org/2000/svg" xmlns:xlink="http://www.w3.org/1999/xlink" contentStyleType="text/css" height="803px" preserveAspectRatio="none" style="width:973px;height:803px;background:#FFFFFF;" version="1.1" viewBox="0 0 973 803" width="973px" zoomAndPan="magnify"><defs/><g><rect fill="#FFFFFF" height="55.412" style="stroke:#696969;stroke-width:1.0;" width="10" x="247" y="94.0679"/><rect fill="#FFFFFF" height="386.6979" style="stroke:#696969;stroke-width:1.0;" width="10" x="247" y="324.01"/><rect fill="#FFFFFF" height="137.0999" style="stroke:#696969;stroke-width:1.0;" width="10" x="252" y="573.608"/><rect fill="#FFFFFF" height="16" style="stroke:#696969;stroke-width:1.0;" width="10" x="257" y="694.708"/><rect fill="#FFFFFF" height="179.5301" style="stroke:#696969;stroke-width:1.0;" width="10" x="538" y="189.186"/><rect fill="#FFFFFF" height="97.118" style="stroke:#696969;stroke-width:1.0;" width="10" x="538" y="510.196"/><rect fill="#DDF2EB" height="493.522" rx="3.5" ry="3.5" style="stroke:#696969;stroke-width:1.0;" width="775" x="191" y="209.186"/><rect fill="#D3CDD7" height="51.412" rx="3.5" ry="3.5" style="stroke:#696969;stroke-width:1.0;" width="406" x="201" y="280.598"/><rect fill="#D3CDD7" height="80.7739" rx="3.5" ry="3.5" style="stroke:#696969;stroke-width:1.0;" width="338" x="479" y="390.716"/><rect height="85.118" rx="3.5" ry="3.5" style="stroke:#696969;stroke-width:1.0;fill:none;" width="406" x="201" y="530.196"/><path d="M191,654.0201 L966,654.0201 L966,699.208 A3.5,3.5 0 0 1 962.5,702.708 L194.5,702.708 A3.5,3.5 0 0 1 191,699.208 L191,654.0201 " fill="#D3CDD7" style="stroke:none;stroke-width:1.0;"/><line style="stroke:#696969;stroke-width:0.5;stroke-dasharray:5.0,5.0;" x1="29" x2="29" y1="84.0679" y2="719.708"/><line style="stroke:#696969;stroke-width:0.5;stroke-dasharray:5.0,5.0;" x1="252" x2="252" y1="84.0679" y2="719.708"/><line style="stroke:#696969;stroke-width:0.5;stroke-dasharray:5.0,5.0;" x1="543" x2="543" y1="84.0679" y2="719.708"/><line style="stroke:#696969;stroke-width:0.5;stroke-dasharray:5.0,5.0;" x1="780" x2="780" y1="450.956" y2="719.708"/><text fill="#454645" font-family="sans-serif" font-size="14" lengthAdjust="spacing" textLength="42" x="5" y="79.9659">Visitor</text><ellipse cx="29" cy="13.5" fill="#454645" rx="8" ry="8" style="stroke:#454645;stroke-width:0.5;"/><path d="M29,21.5 L29,48.5 M16,29.5 L42,29.5 M29,48.5 L16,63.5 M29,48.5 L42,63.5 " fill="none" style="stroke:#454645;stroke-width:0.5;"/><text fill="#454645" font-family="sans-serif" font-size="14" lengthAdjust="spacing" textLength="42" x="5" y="733.6739">Visitor</text><ellipse cx="29" cy="746.2759" fill="#454645" rx="8" ry="8" style="stroke:#454645;stroke-width:0.5;"/><path d="M29,754.2759 L29,781.2759 M16,762.2759 L42,762.2759 M29,781.2759 L16,796.2759 M29,781.2759 L42,796.2759 " fill="none" style="stroke:#454645;stroke-width:0.5;"/><rect fill="#FF6347" height="52.1358" rx="3.5" ry="3.5" style="stroke:#454645;stroke-width:1.5;" width="82" x="211" y="30.9321"/><text fill="#FFFFFF" font-family="sans-serif" font-size="14" font-style="italic" lengthAdjust="spacing" textLength="41" x="231.5" y="52.898">«IHM»</text><text fill="#FFFFFF" font-family="sans-serif" font-size="14" lengthAdjust="spacing" textLength="68" x="218" y="71.9659">LoginView</text><rect fill="#FF6347" height="52.1358" rx="3.5" ry="3.5" style="stroke:#454645;stroke-width:1.5;" width="82" x="211" y="718.708"/><text fill="#FFFFFF" font-family="sans-serif" font-size="14" font-style="italic" lengthAdjust="spacing" textLength="41" x="231.5" y="740.6739">«IHM»</text><text fill="#FFFFFF" font-family="sans-serif" font-size="14" lengthAdjust="spacing" textLength="68" x="218" y="759.7418">LoginView</text><text fill="#454645" font-family="sans-serif" font-size="14" lengthAdjust="spacing" textLength="102" x="489" y="79.9659">:UserController</text><ellipse cx="543" cy="49" fill="#FFE552" rx="12" ry="12" style="stroke:#454645;stroke-width:0.5;"/><polygon fill="#454645" points="539,37,545,32,543,37,545,42,539,37" style="stroke:#454645;stroke-width:1.0;"/><text fill="#454645" font-family="sans-serif" font-size="14" lengthAdjust="spacing" textLength="102" x="489" y="733.6739">:UserController</text><ellipse cx="543" cy="753.7759" fill="#FFE552" rx="12" ry="12" style="stroke:#454645;stroke-width:0.5;"/><polygon fill="#454645" points="539,741.7759,545,736.7759,543,741.7759,545,746.7759,539,741.7759" style="stroke:#454645;stroke-width:1.0;"/><text fill="#454645" font-family="sans-serif" font-size="14" lengthAdjust="spacing" textLength="48" x="753" y="733.6739">u: User</text><ellipse cx="780" cy="753.7759" fill="#FFE552" rx="12" ry="12" style="stroke:#454645;stroke-width:0.5;"/><line style="stroke:#454645;stroke-width:0.5;" x1="768" x2="792" y1="767.7759" y2="767.7759"/><rect fill="#FFFFFF" height="55.412" style="stroke:#696969;stroke-width:1.0;" width="10" x="247" y="94.0679"/><rect fill="#FFFFFF" height="386.6979" style="stroke:#696969;stroke-width:1.0;" width="10" x="247" y="324.01"/><rect fill="#FFFFFF" height="137.0999" style="stroke:#696969;stroke-width:1.0;" width="10" x="252" y="573.608"/><rect fill="#FFFFFF" height="16" style="stroke:#696969;stroke-width:1.0;" width="10" x="257" y="694.708"/><rect fill="#FFFFFF" height="179.5301" style="stroke:#696969;stroke-width:1.0;" width="10" x="538" y="189.186"/><rect fill="#FFFFFF" height="97.118" style="stroke:#696969;stroke-width:1.0;" width="10" x="538" y="510.196"/><polygon fill="#454645" points="235,113.7739,245,117.7739,235,121.7739,239,117.7739" style="stroke:#454645;stroke-width:1.0;"/><line style="stroke:#454645;stroke-width:1.0;" x1="29" x2="241" y1="117.7739" y2="117.7739"/><text fill="#000000" font-family="sans-serif" font-size="13" font-weight="bold" lengthAdjust="spacing" textLength="7" x="36" y="111.9649">1</text><text fill="#000000" font-family="sans-serif" font-size="13" lengthAdjust="spacing" textLength="183" x="47" y="111.9649">Input username and password</text><polygon fill="#454645" points="531,145.4799,541,149.4799,531,153.4799,535,149.4799" style="stroke:#454645;stroke-width:1.0;"/><line style="stroke:#454645;stroke-width:1.0;" x1="252" x2="537" y1="149.4799" y2="149.4799"/><text fill="#000000" font-family="sans-serif" font-size="13" font-weight="bold" lengthAdjust="spacing" textLength="7" x="259" y="143.6709">2</text><text fill="#000000" font-family="sans-serif" font-size="13" lengthAdjust="spacing" textLength="207" x="270" y="143.6709">Search for the user in the database</text><line style="stroke:#454645;stroke-width:1.0;" x1="543" x2="590" y1="176.186" y2="176.186"/><line style="stroke:#454645;stroke-width:1.0;" x1="590" x2="590" y1="176.186" y2="189.186"/><line style="stroke:#454645;stroke-width:1.0;" x1="549" x2="590" y1="189.186" y2="189.186"/><polygon fill="#454645" points="559,185.186,549,189.186,559,193.186,555,189.186" style="stroke:#454645;stroke-width:1.0;"/><text fill="#000000" font-family="sans-serif" font-size="13" font-weight="bold" lengthAdjust="spacing" textLength="7" x="555" y="170.377">3</text><text fill="#000000" font-family="sans-serif" font-size="13" lengthAdjust="spacing" textLength="66" x="566" y="170.377">fetch(User)</text><path d="M194.5,209.186 L254,209.186 L254,218.892 L244,228.892 L191,228.892 L191,212.686 A3.5,3.5 0 0 1 194.5,209.186 " fill="#EEEEEE" style="stroke:#696969;stroke-width:1.5;"/><rect fill="none" height="493.522" rx="3.5" ry="3.5" style="stroke:#696969;stroke-width:1.0;" width="775" x="191" y="209.186"/><text fill="#454645" font-family="sans-serif" font-size="13" font-weight="bold" lengthAdjust="spacing" textLength="18" x="206" y="224.083">alt</text><a href="If" target="_top" title="If" xlink:actuate="onRequest" xlink:href="If" xlink:show="new" xlink:title="If" xlink:type="simple"><text fill="#0000FF" font-family="sans-serif" font-size="11" font-weight="bold" lengthAdjust="spacing" text-decoration="underline" textLength="58" x="269" y="222.9449">user exists</text></a><line style="stroke:#454645;stroke-width:1.0;" x1="548" x2="590" y1="252.598" y2="252.598"/><line style="stroke:#454645;stroke-width:1.0;" x1="590" x2="590" y1="252.598" y2="265.598"/><line style="stroke:#454645;stroke-width:1.0;" x1="549" x2="590" y1="265.598" y2="265.598"/><polygon fill="#454645" points="559,261.598,549,265.598,559,269.598,555,265.598" style="stroke:#454645;stroke-width:1.0;"/><text fill="#000000" font-family="sans-serif" font-size="13" font-weight="bold" lengthAdjust="spacing" textLength="7" x="555" y="246.789">4</text><text fill="#000000" font-family="sans-serif" font-size="13" lengthAdjust="spacing" textLength="66" x="566" y="246.789">getStatus()</text><path d="M204.5,280.598 L268,280.598 L268,290.304 L258,300.304 L201,300.304 L201,284.098 A3.5,3.5 0 0 1 204.5,280.598 " fill="#EEEEEE" style="stroke:#696969;stroke-width:1.5;"/><rect fill="none" height="51.412" rx="3.5" ry="3.5" style="stroke:#696969;stroke-width:1.0;" width="406" x="201" y="280.598"/><text fill="#454645" font-family="sans-serif" font-size="13" font-weight="bold" lengthAdjust="spacing" textLength="22" x="216" y="295.495">opt</text><a href="If" target="_top" title="If" xlink:actuate="onRequest" xlink:href="If" xlink:show="new" xlink:title="If" xlink:type="simple"><text fill="#0000FF" font-family="sans-serif" font-size="11" font-weight="bold" lengthAdjust="spacing" text-decoration="underline" textLength="163" x="283" y="294.3569">Status == UserStatus.BANNED</text></a><polygon fill="#454645" points="268,320.01,258,324.01,268,328.01,264,324.01" style="stroke:#454645;stroke-width:1.0;"/><line style="stroke:#454645;stroke-width:1.0;stroke-dasharray:2.0,2.0;" x1="262" x2="537" y1="324.01" y2="324.01"/><text fill="#000000" font-family="sans-serif" font-size="13" font-weight="bold" lengthAdjust="spacing" textLength="7" x="274" y="318.201">5</text><text fill="#000000" font-family="sans-serif" font-size="13" lengthAdjust="spacing" textLength="152" x="285" y="318.201">Looks like you're banned.</text><line style="stroke:#454645;stroke-width:1.0;" x1="548" x2="590" y1="367.716" y2="367.716"/><line style="stroke:#454645;stroke-width:1.0;" x1="590" x2="590" y1="367.716" y2="380.716"/><line style="stroke:#454645;stroke-width:1.0;" x1="543" x2="590" y1="380.716" y2="380.716"/><polygon fill="#454645" points="553,376.716,543,380.716,553,384.716,549,380.716" style="stroke:#454645;stroke-width:1.0;"/><text fill="#000000" font-family="sans-serif" font-size="13" font-weight="bold" lengthAdjust="spacing" textLength="7" x="555" y="361.907">6</text><text fill="#000000" font-family="sans-serif" font-size="13" lengthAdjust="spacing" textLength="66" x="566" y="361.907">getStatus()</text><path d="M482.5,390.716 L542,390.716 L542,400.4221 L532,410.4221 L479,410.4221 L479,394.216 A3.5,3.5 0 0 1 482.5,390.716 " fill="#EEEEEE" style="stroke:#696969;stroke-width:1.5;"/><rect fill="none" height="80.7739" rx="3.5" ry="3.5" style="stroke:#696969;stroke-width:1.0;" width="338" x="479" y="390.716"/><text fill="#454645" font-family="sans-serif" font-size="13" font-weight="bold" lengthAdjust="spacing" textLength="18" x="494" y="405.6131">alt</text><a href="If" target="_top" title="If" xlink:actuate="onRequest" xlink:href="If" xlink:show="new" xlink:title="If" xlink:type="simple"><text fill="#0000FF" font-family="sans-serif" font-size="11" font-weight="bold" lengthAdjust="spacing" text-decoration="underline" textLength="169" x="557" y="404.475">Status == UserStatus.DISABLED</text></a><polygon fill="#454645" points="741,430.1281,751,434.1281,741,438.1281,745,434.1281" style="stroke:#454645;stroke-width:1.0;"/><line style="stroke:#454645;stroke-width:1.0;" x1="543" x2="747" y1="434.1281" y2="434.1281"/><text fill="#000000" font-family="sans-serif" font-size="13" font-weight="bold" lengthAdjust="spacing" textLength="7" x="550" y="428.3191">7</text><text fill="#000000" font-family="sans-serif" font-size="13" lengthAdjust="spacing" textLength="175" x="561" y="428.3191">setStatus(UserStatus.ACTIVE)</text><text fill="#454645" font-family="sans-serif" font-size="14" lengthAdjust="spacing" textLength="48" x="753" y="457.388">u: User</text><ellipse cx="780" cy="426.4221" fill="#FFE552" rx="12" ry="12" style="stroke:#454645;stroke-width:0.5;"/><line style="stroke:#454645;stroke-width:0.5;" x1="768" x2="792" y1="440.4221" y2="440.4221"/><line style="stroke:#454645;stroke-width:1.0;" x1="543" x2="590" y1="497.196" y2="497.196"/><line style="stroke:#454645;stroke-width:1.0;" x1="590" x2="590" y1="497.196" y2="510.196"/><line style="stroke:#454645;stroke-width:1.0;" x1="549" x2="590" y1="510.196" y2="510.196"/><polygon fill="#454645" points="559,506.196,549,510.196,559,514.196,555,510.196" style="stroke:#454645;stroke-width:1.0;"/><text fill="#000000" font-family="sans-serif" font-size="13" font-weight="bold" lengthAdjust="spacing" textLength="7" x="555" y="491.387">8</text><text fill="#000000" font-family="sans-serif" font-size="13" lengthAdjust="spacing" textLength="126" x="566" y="491.387">Call BCrypt's verifier()</text><path d="M704,490.49 L704,510.49 A3.5,3.5 0 0 0 707.5,513.99 L947.5,513.99 A3.5,3.5 0 0 0 951,510.49 L951,496.99 L941,486.99 L707.5,486.99 A3.5,3.5 0 0 0 704,490.49 " fill="#7FFFD4" style="stroke:#181818;stroke-width:1.5;"/><path d="M941,486.99 L941,495.24 A1.75,1.75 0 0 0 942.75,496.99 L951,496.99 L941,486.99 " fill="#7FFFD4" style="stroke:#181818;stroke-width:1.5;"/><text fill="#454645" font-family="sans-serif" font-size="13" lengthAdjust="spacing" textLength="226" x="710" y="505.887">Passwords are encrypted with BCrypt.</text><path d="M204.5,530.196 L264,530.196 L264,539.902 L254,549.902 L201,549.902 L201,533.696 A3.5,3.5 0 0 1 204.5,530.196 " fill="#EEEEEE" style="stroke:#696969;stroke-width:1.5;"/><rect fill="none" height="85.118" rx="3.5" ry="3.5" style="stroke:#696969;stroke-width:1.0;" width="406" x="201" y="530.196"/><text fill="#454645" font-family="sans-serif" font-size="13" font-weight="bold" lengthAdjust="spacing" textLength="18" x="216" y="545.093">alt</text><a href="If" target="_top" title="If" xlink:actuate="onRequest" xlink:href="If" xlink:show="new" xlink:title="If" xlink:type="simple"><text fill="#0000FF" font-family="sans-serif" font-size="11" font-weight="bold" lengthAdjust="spacing" text-decoration="underline" textLength="265" x="279" y="543.9549">input password matches its hashed counterpart</text></a><polygon fill="#454645" points="273,569.608,263,573.608,273,577.608,269,573.608" style="stroke:#454645;stroke-width:1.0;"/><line style="stroke:#454645;stroke-width:1.0;stroke-dasharray:2.0,2.0;" x1="267" x2="537" y1="573.608" y2="573.608"/><text fill="#000000" font-family="sans-serif" font-size="13" font-weight="bold" lengthAdjust="spacing" textLength="7" x="279" y="567.799">9</text><text fill="#000000" font-family="sans-serif" font-size="13" lengthAdjust="spacing" textLength="96" x="290" y="567.799">Welcome back :)</text><line style="stroke:#696969;stroke-width:1.0;stroke-dasharray:2.0,2.0;" x1="201" x2="607" y1="582.608" y2="582.608"/><polygon fill="#454645" points="273,603.314,263,607.314,273,611.314,269,607.314" style="stroke:#454645;stroke-width:1.0;"/><line style="stroke:#454645;stroke-width:1.0;stroke-dasharray:2.0,2.0;" x1="267" x2="542" y1="607.314" y2="607.314"/><text fill="#000000" font-family="sans-serif" font-size="13" font-weight="bold" lengthAdjust="spacing" textLength="14" x="279" y="601.505">10</text><text fill="#000000" font-family="sans-serif" font-size="13" lengthAdjust="spacing" textLength="196" x="297" y="601.505">Username/password is incorrect.</text><polygon fill="#454645" points="768,642.0201,778,646.0201,768,650.0201,772,646.0201" style="stroke:#454645;stroke-width:1.0;"/><line style="stroke:#454645;stroke-width:1.0;" x1="262" x2="774" y1="646.0201" y2="646.0201"/><text fill="#000000" font-family="sans-serif" font-size="13" font-weight="bold" lengthAdjust="spacing" textLength="14" x="269" y="640.2111">11</text><text fill="#000000" font-family="sans-serif" font-size="13" lengthAdjust="spacing" textLength="217" x="287" y="640.2111">Populate object with remaining data</text><line style="stroke:#696969;stroke-width:1.0;stroke-dasharray:2.0,2.0;" x1="191" x2="966" y1="655.0201" y2="655.0201"/><a href="If" target="_top" title="If" xlink:actuate="onRequest" xlink:href="If" xlink:show="new" xlink:title="If" xlink:type="simple"><text fill="#0000FF" font-family="sans-serif" font-size="11" font-weight="bold" lengthAdjust="spacing" text-decoration="underline" textLength="97" x="196" y="666.779">user doesn't exist</text></a><polygon fill="#454645" points="278,690.708,268,694.708,278,698.708,274,694.708" style="stroke:#454645;stroke-width:1.0;"/><line style="stroke:#454645;stroke-width:1.0;stroke-dasharray:2.0,2.0;" x1="272" x2="542" y1="694.708" y2="694.708"/><text fill="#000000" font-family="sans-serif" font-size="13" font-weight="bold" lengthAdjust="spacing" textLength="14" x="284" y="688.899">12</text><text fill="#000000" font-family="sans-serif" font-size="13" lengthAdjust="spacing" textLength="239" x="302" y="688.899">We don't have this user in our database.</text><!--MD5=[4052ee8cc5d4aaa4709b35660663d954]
@startuml
!theme vibrant

actor Visitor as V
participant "LoginView" as IHM << IHM >>
control ":UserController" as Ctrl
entity "u: User" as User

autonumber

activate IHM
V -> IHM: Input username and password
IHM -> Ctrl: Search for the user in the database
deactivate IHM
Ctrl -> Ctrl: fetch(User)

alt #DDF2EB [If user exists]

   activate Ctrl
   Ctrl -> Ctrl: getStatus()
   opt #D3CDD7 [If Status == UserStatus.BANNED]
      Ctrl - -> IHM ++: Looks like you're banned.
   end

   Ctrl -> Ctrl - -: getStatus()

   alt #D3CDD7 [If Status == UserStatus.DISABLED]
      Ctrl -> User **: setStatus(UserStatus.ACTIVE)
   end

   Ctrl -> Ctrl ++: Call BCrypt's verifier()
   note right
      Passwords are encrypted with BCrypt.
   end note

   alt [If input password matches its hashed counterpart]
      Ctrl - -> IHM ++: Welcome back :)
   else
      Ctrl - -> IHM - -: Username/password is incorrect.
   end

   IHM -> User: Populate object with remaining data
   deactivate User
   
else #D3CDD7 [If user doesn't exist]

   Ctrl - -> IHM ++: We don't have this user in our database.

end
@enduml

@startuml
skinparam BackgroundColor FFFFFF
skinparam shadowing false
skinparam RoundCorner 7
skinparam ArrowColor 454645
skinparam FontColor 454645
skinparam SequenceLifeLineBorderColor 696969
skinparam SequenceGroupHeaderFontColor 454645
skinparam SequenceGroupFontColor 696969
skinparam SequenceGroupBorderColor 696969
skinparam SequenceGroupBorderThickness 1

skinparam sequenceDivider {
    BorderColor 454645
    BorderThickness 1
    FontColor 454645
}

skinparam participant {
    BackgroundColor FF6347
    BorderColor 454645
    FontColor FFFFFF
    BorderThickness 1.5
}

skinparam database {
    BackgroundColor 00FFFF
    BorderColor 454645
    FontColor 454645
}

skinparam entity {
    BackgroundColor FFE552
    BorderColor 454645
    FontColor 454645
}

skinparam note {
    BackgroundColor 7FFFD4
    BorderColor 454645
    FontColor 454645
    BorderThickness 1.5
}

skinparam actor {
    BackgroundColor 454645
    BorderColor 454645
    FontColor 454645
}

skinparam boundary {
    BackgroundColor FFE552
    BorderColor 454645
    FontColor 454645
}

skinparam control {
    BackgroundColor FFE552
    BorderColor 454645
    FontColor 454645
}

skinparam collections {
    BackgroundColor FF5F42
    BorderColor 454645
    FontColor 454645
}

skinparam queue {
    BackgroundColor FF6347
    BorderColor 454645
    FontColor FFF
    BorderThickness 1.5
}

actor Visitor as V
participant "LoginView" as IHM << IHM >>
control ":UserController" as Ctrl
entity "u: User" as User

autonumber

activate IHM
V -> IHM: Input username and password
IHM -> Ctrl: Search for the user in the database
deactivate IHM
Ctrl -> Ctrl: fetch(User)

alt #DDF2EB [If user exists]

   activate Ctrl
   Ctrl -> Ctrl: getStatus()
   opt #D3CDD7 [If Status == UserStatus.BANNED]
      Ctrl - -> IHM ++: Looks like you're banned.
   end

   Ctrl -> Ctrl - -: getStatus()

   alt #D3CDD7 [If Status == UserStatus.DISABLED]
      Ctrl -> User **: setStatus(UserStatus.ACTIVE)
   end

   Ctrl -> Ctrl ++: Call BCrypt's verifier()
   note right
      Passwords are encrypted with BCrypt.
   end note

   alt [If input password matches its hashed counterpart]
      Ctrl - -> IHM ++: Welcome back :)
   else
      Ctrl - -> IHM - -: Username/password is incorrect.
   end

   IHM -> User: Populate object with remaining data
   deactivate User
   
else #D3CDD7 [If user doesn't exist]

   Ctrl - -> IHM ++: We don't have this user in our database.

end
@enduml

PlantUML version 1.2022.4(Sat Apr 09 14:29:17 CET 2022)
(GPL source distribution)
Java Runtime: OpenJDK Runtime Environment
JVM: OpenJDK 64-Bit Server VM
Default Encoding: UTF-8
Language: en
Country: US
--></g></svg>