<?xml version="1.0" encoding="UTF-8" standalone="no"?><svg xmlns="http://www.w3.org/2000/svg" xmlns:xlink="http://www.w3.org/1999/xlink" contentScriptType="application/ecmascript" contentStyleType="text/css" height="815px" preserveAspectRatio="none" style="width:2151px;height:815px;background:#FFFFFF;" version="1.1" viewBox="0 0 2151 815" width="2151px" zoomAndPan="magnify"><defs><filter height="300%" id="fp9jejpr33gi3" width="300%" x="-1" y="-1"><feGaussianBlur result="blurOut" stdDeviation="2.0"/><feColorMatrix in="blurOut" result="blurOut2" type="matrix" values="0 0 0 0 0 0 0 0 0 0 0 0 0 0 0 0 0 0 .4 0"/><feOffset dx="4.0" dy="4.0" in="blurOut2" result="blurOut3"/><feBlend in="SourceGraphic" in2="blurOut3" mode="normal"/></filter></defs><g><!--MD5=[7108b54212a9e23d61b9e1c1a9e4d86e]
cluster com.druid.gui.views--><polygon fill="#FFFFFF" filter="url(#fp9jejpr33gi3)" points="1232.5,93.602,1378.5,93.602,1385.5,118.6699,1649.5,118.6699,1649.5,564.102,1232.5,564.102,1232.5,93.602" style="stroke:#000000;stroke-width:1.5;"/><line style="stroke:#000000;stroke-width:1.5;" x1="1232.5" x2="1385.5" y1="118.6699" y2="118.6699"/><text fill="#000000" font-family="sans-serif" font-size="14" font-weight="bold" lengthAdjust="spacing" textLength="140" x="1236.5" y="110.5679">com.druid.gui.views</text><!--MD5=[6e668d115055c9a82136967968fcb32c]
cluster com.druid.services--><polygon fill="#FFFFFF" filter="url(#fp9jejpr33gi3)" points="1673.5,93.602,1809.5,93.602,1816.5,118.6699,2134.5,118.6699,2134.5,240.602,1673.5,240.602,1673.5,93.602" style="stroke:#000000;stroke-width:1.5;"/><line style="stroke:#000000;stroke-width:1.5;" x1="1673.5" x2="1816.5" y1="118.6699" y2="118.6699"/><text fill="#000000" font-family="sans-serif" font-size="14" font-weight="bold" lengthAdjust="spacing" textLength="130" x="1677.5" y="110.5679">com.druid.services</text><!--MD5=[e1e0d0f38aa5a73eeb52742e0840c100]
cluster com.druid.enums--><polygon fill="#FFFFFF" filter="url(#fp9jejpr33gi3)" points="885.5,661.602,1013.5,661.602,1020.5,686.6699,1247.5,686.6699,1247.5,808.602,885.5,808.602,885.5,661.602" style="stroke:#000000;stroke-width:1.5;"/><line style="stroke:#000000;stroke-width:1.5;" x1="885.5" x2="1020.5" y1="686.6699" y2="686.6699"/><text fill="#000000" font-family="sans-serif" font-size="14" font-weight="bold" lengthAdjust="spacing" textLength="122" x="889.5" y="678.5679">com.druid.enums</text><!--MD5=[04edff00a165574247701465ecf4fbc0]
cluster com.druid.models--><polygon fill="#DDDDDD" filter="url(#fp9jejpr33gi3)" points="202.5,6.602,334.5,6.602,341.5,31.6699,1161.5,31.6699,1161.5,628.602,202.5,628.602,202.5,6.602" style="stroke:#000000;stroke-width:1.5;"/><line style="stroke:#000000;stroke-width:1.5;" x1="202.5" x2="341.5" y1="31.6699" y2="31.6699"/><text fill="#000000" font-family="sans-serif" font-size="14" font-weight="bold" lengthAdjust="spacing" textLength="126" x="206.5" y="23.5679">com.druid.models</text><!--MD5=[8309b17d830045003489ce4c308a9814]
class LoginView--><rect codeLine="2" fill="#FEFECE" filter="url(#fp9jejpr33gi3)" height="92.9457" id="LoginView" style="stroke:#A80036;stroke-width:1.5;" width="197" x="1249" y="131.602"/><ellipse cx="1315.25" cy="147.602" fill="#ADD1B2" rx="11" ry="11" style="stroke:#A80036;stroke-width:1.0;"/><path d="M1314.7188,154.5239 Q1312.9688,154.5239 1311.8281,153.7895 Q1310.7031,153.0395 1310.1406,151.6957 Q1309.5938,150.3364 1309.5938,148.5395 Q1309.5938,146.5082 1310.25,145.0551 Q1310.9063,143.602 1312.1875,142.8207 Q1313.4688,142.0395 1315.3438,142.0395 Q1316.2344,142.0395 1316.9063,142.227 Q1317.5781,142.3989 1318.2656,142.7426 L1317.4531,144.7582 Q1316.8281,144.4457 1316.2813,144.3207 Q1315.75,144.1957 1315.2656,144.1957 Q1314.0938,144.1957 1313.3906,144.727 Q1312.6875,145.2582 1312.3906,146.2114 Q1312.0938,147.1645 1312.0938,148.4301 Q1312.0938,150.4457 1312.8125,151.4145 Q1313.5313,152.3676 1315.125,152.3676 Q1315.7188,152.3676 1316.3438,152.2114 Q1316.9688,152.0551 1317.7969,151.6801 L1317.7969,153.8989 Q1317.0625,154.2114 1316.2656,154.3676 Q1315.4844,154.5239 1314.7188,154.5239 Z " fill="#000000"/><text fill="#000000" font-family="sans-serif" font-size="12" lengthAdjust="spacing" textLength="56" x="1335.75" y="152.258">LoginView</text><line style="stroke:#A80036;stroke-width:1.5;" x1="1250" x2="1445" y1="163.602" y2="163.602"/><line style="stroke:#A80036;stroke-width:1.5;" x1="1250" x2="1445" y1="171.602" y2="171.602"/><ellipse cx="1260" cy="182.602" fill="#84BE84" rx="3" ry="3" style="stroke:#038048;stroke-width:1.0;"/><text fill="#000000" font-family="sans-serif" font-size="11" lengthAdjust="spacing" textLength="56" x="1269" y="187.3609">void start()</text><ellipse cx="1260" cy="197.5839" fill="#84BE84" rx="3" ry="3" style="stroke:#038048;stroke-width:1.0;"/><text fill="#000000" font-family="sans-serif" font-size="11" lengthAdjust="spacing" textLength="122" x="1269" y="202.3428">void handleLoginClick()</text><ellipse cx="1260" cy="212.5658" fill="#84BE84" rx="3" ry="3" style="stroke:#038048;stroke-width:1.0;"/><text fill="#000000" font-family="sans-serif" font-size="11" lengthAdjust="spacing" textLength="171" x="1269" y="217.3247">void handleResetPasswordClick()</text><!--MD5=[db83e8cce871975227a211a29b730a1c]
class ForgotPasswordView--><rect codeLine="8" fill="#FEFECE" filter="url(#fp9jejpr33gi3)" height="92.9457" id="ForgotPasswordView" style="stroke:#A80036;stroke-width:1.5;" width="152" x="1481.5" y="131.602"/><ellipse cx="1498.3" cy="147.602" fill="#ADD1B2" rx="11" ry="11" style="stroke:#A80036;stroke-width:1.0;"/><path d="M1497.7688,154.5239 Q1496.0188,154.5239 1494.8781,153.7895 Q1493.7531,153.0395 1493.1906,151.6957 Q1492.6438,150.3364 1492.6438,148.5395 Q1492.6438,146.5082 1493.3,145.0551 Q1493.9563,143.602 1495.2375,142.8207 Q1496.5188,142.0395 1498.3938,142.0395 Q1499.2844,142.0395 1499.9563,142.227 Q1500.6281,142.3989 1501.3156,142.7426 L1500.5031,144.7582 Q1499.8781,144.4457 1499.3313,144.3207 Q1498.8,144.1957 1498.3156,144.1957 Q1497.1438,144.1957 1496.4406,144.727 Q1495.7375,145.2582 1495.4406,146.2114 Q1495.1438,147.1645 1495.1438,148.4301 Q1495.1438,150.4457 1495.8625,151.4145 Q1496.5813,152.3676 1498.175,152.3676 Q1498.7688,152.3676 1499.3938,152.2114 Q1500.0188,152.0551 1500.8469,151.6801 L1500.8469,153.8989 Q1500.1125,154.2114 1499.3156,154.3676 Q1498.5344,154.5239 1497.7688,154.5239 Z " fill="#000000"/><text fill="#000000" font-family="sans-serif" font-size="12" lengthAdjust="spacing" textLength="116" x="1512.7" y="152.258">ForgotPasswordView</text><line style="stroke:#A80036;stroke-width:1.5;" x1="1482.5" x2="1632.5" y1="163.602" y2="163.602"/><line style="stroke:#A80036;stroke-width:1.5;" x1="1482.5" x2="1632.5" y1="171.602" y2="171.602"/><ellipse cx="1492.5" cy="182.602" fill="#84BE84" rx="3" ry="3" style="stroke:#038048;stroke-width:1.0;"/><text fill="#000000" font-family="sans-serif" font-size="11" lengthAdjust="spacing" textLength="56" x="1501.5" y="187.3609">void start()</text><ellipse cx="1492.5" cy="197.5839" fill="#84BE84" rx="3" ry="3" style="stroke:#038048;stroke-width:1.0;"/><text fill="#000000" font-family="sans-serif" font-size="11" lengthAdjust="spacing" textLength="118" x="1501.5" y="202.3428">void handleSendClick()</text><ellipse cx="1492.5" cy="212.5658" fill="#84BE84" rx="3" ry="3" style="stroke:#038048;stroke-width:1.0;"/><text fill="#000000" font-family="sans-serif" font-size="11" lengthAdjust="spacing" textLength="126" x="1501.5" y="217.3247">void handleCancelClick()</text><!--MD5=[42696e6c556b2f609b7a3085474e56d8]
class ResetPasswordView--><rect codeLine="14" fill="#FEFECE" filter="url(#fp9jejpr33gi3)" height="92.9457" id="ResetPasswordView" style="stroke:#A80036;stroke-width:1.5;" width="156" x="1269.5" y="455.102"/><ellipse cx="1290.35" cy="471.102" fill="#ADD1B2" rx="11" ry="11" style="stroke:#A80036;stroke-width:1.0;"/><path d="M1289.8188,478.0239 Q1288.0688,478.0239 1286.9281,477.2895 Q1285.8031,476.5395 1285.2406,475.1957 Q1284.6938,473.8364 1284.6938,472.0395 Q1284.6938,470.0082 1285.35,468.5551 Q1286.0063,467.102 1287.2875,466.3207 Q1288.5688,465.5395 1290.4438,465.5395 Q1291.3344,465.5395 1292.0063,465.727 Q1292.6781,465.8989 1293.3656,466.2426 L1292.5531,468.2582 Q1291.9281,467.9457 1291.3813,467.8207 Q1290.85,467.6957 1290.3656,467.6957 Q1289.1938,467.6957 1288.4906,468.227 Q1287.7875,468.7582 1287.4906,469.7114 Q1287.1938,470.6645 1287.1938,471.9301 Q1287.1938,473.9457 1287.9125,474.9145 Q1288.6313,475.8676 1290.225,475.8676 Q1290.8188,475.8676 1291.4438,475.7114 Q1292.0688,475.5551 1292.8969,475.1801 L1292.8969,477.3989 Q1292.1625,477.7114 1291.3656,477.8676 Q1290.5844,478.0239 1289.8188,478.0239 Z " fill="#000000"/><text fill="#000000" font-family="sans-serif" font-size="12" lengthAdjust="spacing" textLength="111" x="1305.65" y="475.758">ResetPasswordView</text><line style="stroke:#A80036;stroke-width:1.5;" x1="1270.5" x2="1424.5" y1="487.102" y2="487.102"/><line style="stroke:#A80036;stroke-width:1.5;" x1="1270.5" x2="1424.5" y1="495.102" y2="495.102"/><ellipse cx="1280.5" cy="506.102" fill="#84BE84" rx="3" ry="3" style="stroke:#038048;stroke-width:1.0;"/><text fill="#000000" font-family="sans-serif" font-size="11" lengthAdjust="spacing" textLength="56" x="1289.5" y="510.8609">void start()</text><ellipse cx="1280.5" cy="521.0839" fill="#84BE84" rx="3" ry="3" style="stroke:#038048;stroke-width:1.0;"/><text fill="#000000" font-family="sans-serif" font-size="11" lengthAdjust="spacing" textLength="130" x="1289.5" y="525.8428">void handleUpdateClick()</text><ellipse cx="1280.5" cy="536.0658" fill="#84BE84" rx="3" ry="3" style="stroke:#038048;stroke-width:1.0;"/><text fill="#000000" font-family="sans-serif" font-size="11" lengthAdjust="spacing" textLength="126" x="1289.5" y="540.8247">void handleCancelClick()</text><!--MD5=[e4ac4745f81aec2db60ad4ddae80b659]
class UserService--><rect codeLine="22" fill="#FEFECE" filter="url(#fp9jejpr33gi3)" height="92.9457" id="UserService" style="stroke:#A80036;stroke-width:1.5;" width="189" x="1929" y="131.602"/><ellipse cx="1985.25" cy="147.602" fill="#ADD1B2" rx="11" ry="11" style="stroke:#A80036;stroke-width:1.0;"/><path d="M1984.7188,154.5239 Q1982.9688,154.5239 1981.8281,153.7895 Q1980.7031,153.0395 1980.1406,151.6957 Q1979.5938,150.3364 1979.5938,148.5395 Q1979.5938,146.5082 1980.25,145.0551 Q1980.9063,143.602 1982.1875,142.8207 Q1983.4688,142.0395 1985.3438,142.0395 Q1986.2344,142.0395 1986.9063,142.227 Q1987.5781,142.3989 1988.2656,142.7426 L1987.4531,144.7582 Q1986.8281,144.4457 1986.2813,144.3207 Q1985.75,144.1957 1985.2656,144.1957 Q1984.0938,144.1957 1983.3906,144.727 Q1982.6875,145.2582 1982.3906,146.2114 Q1982.0938,147.1645 1982.0938,148.4301 Q1982.0938,150.4457 1982.8125,151.4145 Q1983.5313,152.3676 1985.125,152.3676 Q1985.7188,152.3676 1986.3438,152.2114 Q1986.9688,152.0551 1987.7969,151.6801 L1987.7969,153.8989 Q1987.0625,154.2114 1986.2656,154.3676 Q1985.4844,154.5239 1984.7188,154.5239 Z " fill="#000000"/><text fill="#000000" font-family="sans-serif" font-size="12" lengthAdjust="spacing" textLength="68" x="2005.75" y="152.258">UserService</text><line style="stroke:#A80036;stroke-width:1.5;" x1="1930" x2="2117" y1="163.602" y2="163.602"/><line style="stroke:#A80036;stroke-width:1.5;" x1="1930" x2="2117" y1="171.602" y2="171.602"/><ellipse cx="1940" cy="182.602" fill="#84BE84" rx="3" ry="3" style="stroke:#038048;stroke-width:1.0;"/><text fill="#000000" font-family="sans-serif" font-size="11" lengthAdjust="spacing" textLength="69" x="1949" y="187.3609">void update()</text><ellipse cx="1940" cy="197.5839" fill="#84BE84" rx="3" ry="3" style="stroke:#038048;stroke-width:1.0;"/><text fill="#000000" font-family="sans-serif" font-size="11" lengthAdjust="spacing" textLength="163" x="1949" y="202.3428">Optional&lt;User&gt; fetchOne(User)</text><ellipse cx="1940" cy="212.5658" fill="#84BE84" rx="3" ry="3" style="stroke:#038048;stroke-width:1.0;"/><text fill="#000000" font-family="sans-serif" font-size="11" lengthAdjust="spacing" textLength="156" x="1949" y="217.3247">Optional&lt;User&gt; authenticate()</text><!--MD5=[9d309a25205a4dcbe5c72e626122d3aa]
class TokenService--><rect codeLine="28" fill="#FEFECE" filter="url(#fp9jejpr33gi3)" height="92.9457" id="TokenService" style="stroke:#A80036;stroke-width:1.5;" width="205" x="1689" y="131.602"/><ellipse cx="1749.75" cy="147.602" fill="#ADD1B2" rx="11" ry="11" style="stroke:#A80036;stroke-width:1.0;"/><path d="M1749.2188,154.5239 Q1747.4688,154.5239 1746.3281,153.7895 Q1745.2031,153.0395 1744.6406,151.6957 Q1744.0938,150.3364 1744.0938,148.5395 Q1744.0938,146.5082 1744.75,145.0551 Q1745.4063,143.602 1746.6875,142.8207 Q1747.9688,142.0395 1749.8438,142.0395 Q1750.7344,142.0395 1751.4063,142.227 Q1752.0781,142.3989 1752.7656,142.7426 L1751.9531,144.7582 Q1751.3281,144.4457 1750.7813,144.3207 Q1750.25,144.1957 1749.7656,144.1957 Q1748.5938,144.1957 1747.8906,144.727 Q1747.1875,145.2582 1746.8906,146.2114 Q1746.5938,147.1645 1746.5938,148.4301 Q1746.5938,150.4457 1747.3125,151.4145 Q1748.0313,152.3676 1749.625,152.3676 Q1750.2188,152.3676 1750.8438,152.2114 Q1751.4688,152.0551 1752.2969,151.6801 L1752.2969,153.8989 Q1751.5625,154.2114 1750.7656,154.3676 Q1749.9844,154.5239 1749.2188,154.5239 Z " fill="#000000"/><text fill="#000000" font-family="sans-serif" font-size="12" lengthAdjust="spacing" textLength="75" x="1770.25" y="152.258">TokenService</text><line style="stroke:#A80036;stroke-width:1.5;" x1="1690" x2="1893" y1="163.602" y2="163.602"/><line style="stroke:#A80036;stroke-width:1.5;" x1="1690" x2="1893" y1="171.602" y2="171.602"/><ellipse cx="1700" cy="182.602" fill="#84BE84" rx="3" ry="3" style="stroke:#038048;stroke-width:1.0;"/><text fill="#000000" font-family="sans-serif" font-size="11" lengthAdjust="spacing" textLength="79" x="1709" y="187.3609">void generate()</text><ellipse cx="1700" cy="197.5839" fill="#84BE84" rx="3" ry="3" style="stroke:#038048;stroke-width:1.0;"/><text fill="#000000" font-family="sans-serif" font-size="11" lengthAdjust="spacing" textLength="79" x="1709" y="202.3428">void consume()</text><ellipse cx="1700" cy="212.5658" fill="#84BE84" rx="3" ry="3" style="stroke:#038048;stroke-width:1.0;"/><text fill="#000000" font-family="sans-serif" font-size="11" lengthAdjust="spacing" textLength="179" x="1709" y="217.3247">Optional&lt;Token&gt; fetchOne(Token)</text><!--MD5=[51fd3fce36c976f35b405d5800336138]
class UserStatus--><rect codeLine="36" fill="#FEFECE" filter="url(#fp9jejpr33gi3)" height="92.9457" id="UserStatus" style="stroke:#A80036;stroke-width:1.5;" width="94" x="1137.5" y="699.602"/><ellipse cx="1152.5" cy="715.602" fill="#EB937F" rx="11" ry="11" style="stroke:#A80036;stroke-width:1.0;"/><path d="M1148.8594,722.102 L1148.8594,709.9614 L1156.5156,709.9614 L1156.5156,712.0864 L1151.2344,712.0864 L1151.2344,714.7426 L1156.25,714.7426 L1156.25,716.8676 L1151.2344,716.8676 L1151.2344,719.977 L1156.5156,719.977 L1156.5156,722.102 L1148.8594,722.102 Z " fill="#000000"/><text fill="#000000" font-family="sans-serif" font-size="12" lengthAdjust="spacing" textLength="62" x="1166.5" y="720.258">UserStatus</text><line style="stroke:#A80036;stroke-width:1.5;" x1="1138.5" x2="1230.5" y1="731.602" y2="731.602"/><text fill="#000000" font-family="sans-serif" font-size="11" lengthAdjust="spacing" textLength="37" x="1143.5" y="747.3609">ACTIVE</text><text fill="#000000" font-family="sans-serif" font-size="11" lengthAdjust="spacing" textLength="52" x="1143.5" y="762.3428">DISABLED</text><text fill="#000000" font-family="sans-serif" font-size="11" lengthAdjust="spacing" textLength="44" x="1143.5" y="777.3247">BANNED</text><line style="stroke:#A80036;stroke-width:1.5;" x1="1138.5" x2="1230.5" y1="784.5476" y2="784.5476"/><!--MD5=[a369faf6373d890c6ba8a9ef2654171b]
class Activities--><rect codeLine="42" fill="#FEFECE" filter="url(#fp9jejpr33gi3)" height="92.9457" id="Activities" style="stroke:#A80036;stroke-width:1.5;" width="82" x="901.5" y="699.602"/><ellipse cx="916.5" cy="715.602" fill="#EB937F" rx="11" ry="11" style="stroke:#A80036;stroke-width:1.0;"/><path d="M912.8594,722.102 L912.8594,709.9614 L920.5156,709.9614 L920.5156,712.0864 L915.2344,712.0864 L915.2344,714.7426 L920.25,714.7426 L920.25,716.8676 L915.2344,716.8676 L915.2344,719.977 L920.5156,719.977 L920.5156,722.102 L912.8594,722.102 Z " fill="#000000"/><text fill="#000000" font-family="sans-serif" font-size="12" lengthAdjust="spacing" textLength="50" x="930.5" y="720.258">Activities</text><line style="stroke:#A80036;stroke-width:1.5;" x1="902.5" x2="982.5" y1="731.602" y2="731.602"/><text fill="#000000" font-family="sans-serif" font-size="11" lengthAdjust="spacing" textLength="50" x="907.5" y="747.3609">SECURITY</text><text fill="#000000" font-family="sans-serif" font-size="11" lengthAdjust="spacing" textLength="43" x="907.5" y="762.3428">BILLING</text><text fill="#000000" font-family="sans-serif" font-size="11" lengthAdjust="spacing" textLength="45" x="907.5" y="777.3247">PROFILE</text><line style="stroke:#A80036;stroke-width:1.5;" x1="902.5" x2="982.5" y1="784.5476" y2="784.5476"/><!--MD5=[0bc995f86cefd7304b6bfe9f2b552bfd]
class Offense--><rect codeLine="48" fill="#FEFECE" filter="url(#fp9jejpr33gi3)" height="92.9457" id="Offense" style="stroke:#A80036;stroke-width:1.5;" width="83" x="1019" y="699.602"/><ellipse cx="1037.15" cy="715.602" fill="#EB937F" rx="11" ry="11" style="stroke:#A80036;stroke-width:1.0;"/><path d="M1033.5094,722.102 L1033.5094,709.9614 L1041.1656,709.9614 L1041.1656,712.0864 L1035.8844,712.0864 L1035.8844,714.7426 L1040.9,714.7426 L1040.9,716.8676 L1035.8844,716.8676 L1035.8844,719.977 L1041.1656,719.977 L1041.1656,722.102 L1033.5094,722.102 Z " fill="#000000"/><text fill="#000000" font-family="sans-serif" font-size="12" lengthAdjust="spacing" textLength="44" x="1051.85" y="720.258">Offense</text><line style="stroke:#A80036;stroke-width:1.5;" x1="1020" x2="1101" y1="731.602" y2="731.602"/><text fill="#000000" font-family="sans-serif" font-size="11" lengthAdjust="spacing" textLength="71" x="1025" y="747.3609">HARASSMENT</text><text fill="#000000" font-family="sans-serif" font-size="11" lengthAdjust="spacing" textLength="30" x="1025" y="762.3428">SPAM</text><text fill="#000000" font-family="sans-serif" font-size="11" lengthAdjust="spacing" textLength="53" x="1025" y="777.3247">VIOLENCE</text><line style="stroke:#A80036;stroke-width:1.5;" x1="1020" x2="1101" y1="784.5476" y2="784.5476"/><!--MD5=[09a5b4adb0ee554eafb73b413209c7bf]
class Users--><rect codeLine="68" fill="#FEFECE" filter="url(#fp9jejpr33gi3)" height="227.7827" id="Users" style="stroke:#A80036;stroke-width:1.5;" width="161" x="639.5" y="65.102"/><ellipse cx="699.25" cy="81.102" fill="#ADD1B2" rx="11" ry="11" style="stroke:#A80036;stroke-width:1.0;"/><path d="M698.7188,88.0239 Q696.9688,88.0239 695.8281,87.2895 Q694.7031,86.5395 694.1406,85.1957 Q693.5938,83.8364 693.5938,82.0395 Q693.5938,80.0082 694.25,78.5551 Q694.9063,77.102 696.1875,76.3207 Q697.4688,75.5395 699.3438,75.5395 Q700.2344,75.5395 700.9063,75.727 Q701.5781,75.8989 702.2656,76.2426 L701.4531,78.2582 Q700.8281,77.9457 700.2813,77.8207 Q699.75,77.6957 699.2656,77.6957 Q698.0938,77.6957 697.3906,78.227 Q696.6875,78.7582 696.3906,79.7114 Q696.0938,80.6645 696.0938,81.9301 Q696.0938,83.9457 696.8125,84.9145 Q697.5313,85.8676 699.125,85.8676 Q699.7188,85.8676 700.3438,85.7114 Q700.9688,85.5551 701.7969,85.1801 L701.7969,87.3989 Q701.0625,87.7114 700.2656,87.8676 Q699.4844,88.0239 698.7188,88.0239 Z " fill="#000000"/><text fill="#000000" font-family="sans-serif" font-size="12" lengthAdjust="spacing" textLength="33" x="719.75" y="85.758">Users</text><line style="stroke:#A80036;stroke-width:1.5;" x1="640.5" x2="799.5" y1="97.102" y2="97.102"/><rect fill="none" height="6" style="stroke:#C82930;stroke-width:1.0;" width="6" x="647.5" y="105.102"/><text fill="#000000" font-family="sans-serif" font-size="11" lengthAdjust="spacing" textLength="32" x="659.5" y="112.8609">ID: int</text><rect fill="none" height="6" style="stroke:#C82930;stroke-width:1.0;" width="6" x="647.5" y="120.0839"/><text fill="#000000" font-family="sans-serif" font-size="11" lengthAdjust="spacing" textLength="89" x="659.5" y="127.8428">firstName: String</text><rect fill="none" height="6" style="stroke:#C82930;stroke-width:1.0;" width="6" x="647.5" y="135.0658"/><text fill="#000000" font-family="sans-serif" font-size="11" lengthAdjust="spacing" textLength="86" x="659.5" y="142.8247">lastName: String</text><rect fill="none" height="6" style="stroke:#C82930;stroke-width:1.0;" width="6" x="647.5" y="150.0476"/><text fill="#000000" font-family="sans-serif" font-size="11" lengthAdjust="spacing" textLength="90" x="659.5" y="157.8066">username: String</text><rect fill="none" height="6" style="stroke:#C82930;stroke-width:1.0;" width="6" x="647.5" y="165.0295"/><text fill="#000000" font-family="sans-serif" font-size="11" lengthAdjust="spacing" textLength="89" x="659.5" y="172.7884">password: String</text><rect fill="none" height="6" style="stroke:#C82930;stroke-width:1.0;" width="6" x="647.5" y="180.0114"/><text fill="#000000" font-family="sans-serif" font-size="11" lengthAdjust="spacing" textLength="66" x="659.5" y="187.7703">email: String</text><rect fill="none" height="6" style="stroke:#C82930;stroke-width:1.0;" width="6" x="647.5" y="194.9933"/><text fill="#000000" font-family="sans-serif" font-size="11" lengthAdjust="spacing" textLength="135" x="659.5" y="202.7522">status: Enum&lt;UserStatus&gt;</text><rect fill="none" height="6" style="stroke:#C82930;stroke-width:1.0;" width="6" x="647.5" y="209.9752"/><text fill="#000000" font-family="sans-serif" font-size="11" lengthAdjust="spacing" textLength="71" x="659.5" y="217.7341">avatar: String</text><line style="stroke:#A80036;stroke-width:1.5;" x1="640.5" x2="799.5" y1="224.9571" y2="224.9571"/><ellipse cx="650.5" cy="235.9571" fill="#84BE84" rx="3" ry="3" style="stroke:#038048;stroke-width:1.0;"/><text fill="#000000" font-family="sans-serif" font-size="11" lengthAdjust="spacing" textLength="88" x="659.5" y="240.716">void create(User)</text><ellipse cx="650.5" cy="250.939" fill="#84BE84" rx="3" ry="3" style="stroke:#038048;stroke-width:1.0;"/><text fill="#000000" font-family="sans-serif" font-size="11" lengthAdjust="spacing" textLength="73" x="659.5" y="255.6979">void get(User)</text><ellipse cx="650.5" cy="265.9209" fill="#84BE84" rx="3" ry="3" style="stroke:#038048;stroke-width:1.0;"/><text fill="#000000" font-family="sans-serif" font-size="11" lengthAdjust="spacing" textLength="93" x="659.5" y="270.6798">void update(User)</text><ellipse cx="650.5" cy="280.9027" fill="#84BE84" rx="3" ry="3" style="stroke:#038048;stroke-width:1.0;"/><text fill="#000000" font-family="sans-serif" font-size="11" lengthAdjust="spacing" textLength="88" x="659.5" y="285.6617">void delete(User)</text><!--MD5=[56b786b736faa83d3def511ea8a11420]
class Podcaster--><rect codeLine="83" fill="#FEFECE" filter="url(#fp9jejpr33gi3)" height="107.9276" id="Podcaster" style="stroke:#A80036;stroke-width:1.5;" width="119" x="430" y="447.602"/><ellipse cx="458.95" cy="463.602" fill="#ADD1B2" rx="11" ry="11" style="stroke:#A80036;stroke-width:1.0;"/><path d="M458.4188,470.5239 Q456.6688,470.5239 455.5281,469.7895 Q454.4031,469.0395 453.8406,467.6957 Q453.2938,466.3364 453.2938,464.5395 Q453.2938,462.5082 453.95,461.0551 Q454.6063,459.602 455.8875,458.8207 Q457.1688,458.0395 459.0438,458.0395 Q459.9344,458.0395 460.6063,458.227 Q461.2781,458.3989 461.9656,458.7426 L461.1531,460.7582 Q460.5281,460.4457 459.9813,460.3207 Q459.45,460.1957 458.9656,460.1957 Q457.7938,460.1957 457.0906,460.727 Q456.3875,461.2582 456.0906,462.2114 Q455.7938,463.1645 455.7938,464.4301 Q455.7938,466.4457 456.5125,467.4145 Q457.2313,468.3676 458.825,468.3676 Q459.4188,468.3676 460.0438,468.2114 Q460.6688,468.0551 461.4969,467.6801 L461.4969,469.8989 Q460.7625,470.2114 459.9656,470.3676 Q459.1844,470.5239 458.4188,470.5239 Z " fill="#000000"/><text fill="#000000" font-family="sans-serif" font-size="12" lengthAdjust="spacing" textLength="56" x="476.05" y="468.258">Podcaster</text><line style="stroke:#A80036;stroke-width:1.5;" x1="431" x2="548" y1="479.602" y2="479.602"/><rect fill="none" height="6" style="stroke:#C82930;stroke-width:1.0;" width="6" x="438" y="487.602"/><text fill="#000000" font-family="sans-serif" font-size="11" lengthAdjust="spacing" textLength="32" x="450" y="495.3609">ID: int</text><rect fill="none" height="6" style="stroke:#C82930;stroke-width:1.0;" width="6" x="438" y="502.5839"/><text fill="#000000" font-family="sans-serif" font-size="11" lengthAdjust="spacing" textLength="89" x="450" y="510.3428">firstName: String</text><rect fill="none" height="6" style="stroke:#C82930;stroke-width:1.0;" width="6" x="438" y="517.5658"/><text fill="#000000" font-family="sans-serif" font-size="11" lengthAdjust="spacing" textLength="86" x="450" y="525.3247">lastName: String</text><rect fill="none" height="6" style="stroke:#C82930;stroke-width:1.0;" width="6" x="438" y="532.5476"/><text fill="#000000" font-family="sans-serif" font-size="11" lengthAdjust="spacing" textLength="93" x="450" y="540.3066">biography: String</text><line style="stroke:#A80036;stroke-width:1.5;" x1="431" x2="548" y1="547.5295" y2="547.5295"/><!--MD5=[da547346deef918ea16944ba046651ef]
class Administrator--><rect codeLine="90" fill="#FEFECE" filter="url(#fp9jejpr33gi3)" height="92.9457" id="Administrator" style="stroke:#A80036;stroke-width:1.5;" width="115" x="584" y="455.102"/><ellipse cx="601.7" cy="471.102" fill="#ADD1B2" rx="11" ry="11" style="stroke:#A80036;stroke-width:1.0;"/><path d="M601.1688,478.0239 Q599.4188,478.0239 598.2781,477.2895 Q597.1531,476.5395 596.5906,475.1957 Q596.0438,473.8364 596.0438,472.0395 Q596.0438,470.0082 596.7,468.5551 Q597.3563,467.102 598.6375,466.3207 Q599.9188,465.5395 601.7938,465.5395 Q602.6844,465.5395 603.3563,465.727 Q604.0281,465.8989 604.7156,466.2426 L603.9031,468.2582 Q603.2781,467.9457 602.7313,467.8207 Q602.2,467.6957 601.7156,467.6957 Q600.5438,467.6957 599.8406,468.227 Q599.1375,468.7582 598.8406,469.7114 Q598.5438,470.6645 598.5438,471.9301 Q598.5438,473.9457 599.2625,474.9145 Q599.9813,475.8676 601.575,475.8676 Q602.1688,475.8676 602.7938,475.7114 Q603.4188,475.5551 604.2469,475.1801 L604.2469,477.3989 Q603.5125,477.7114 602.7156,477.8676 Q601.9344,478.0239 601.1688,478.0239 Z " fill="#000000"/><text fill="#000000" font-family="sans-serif" font-size="12" lengthAdjust="spacing" textLength="77" x="616.3" y="475.758">Administrator</text><line style="stroke:#A80036;stroke-width:1.5;" x1="585" x2="698" y1="487.102" y2="487.102"/><rect fill="none" height="6" style="stroke:#C82930;stroke-width:1.0;" width="6" x="592" y="495.102"/><text fill="#000000" font-family="sans-serif" font-size="11" lengthAdjust="spacing" textLength="32" x="604" y="502.8609">ID: int</text><rect fill="none" height="6" style="stroke:#C82930;stroke-width:1.0;" width="6" x="592" y="510.0839"/><text fill="#000000" font-family="sans-serif" font-size="11" lengthAdjust="spacing" textLength="89" x="604" y="517.8428">firstName: String</text><rect fill="none" height="6" style="stroke:#C82930;stroke-width:1.0;" width="6" x="592" y="525.0658"/><text fill="#000000" font-family="sans-serif" font-size="11" lengthAdjust="spacing" textLength="86" x="604" y="532.8247">lastName: String</text><line style="stroke:#A80036;stroke-width:1.5;" x1="585" x2="698" y1="540.0476" y2="540.0476"/><!--MD5=[40ce7c85f33a27b949ebdd41bd3f4b23]
class Tokens--><rect codeLine="96" fill="#FEFECE" filter="url(#fp9jejpr33gi3)" height="182.837" id="Tokens" style="stroke:#A80036;stroke-width:1.5;" width="129" x="242.5" y="410.602"/><ellipse cx="283.15" cy="426.602" fill="#ADD1B2" rx="11" ry="11" style="stroke:#A80036;stroke-width:1.0;"/><path d="M282.6188,433.5239 Q280.8688,433.5239 279.7281,432.7895 Q278.6031,432.0395 278.0406,430.6957 Q277.4938,429.3364 277.4938,427.5395 Q277.4938,425.5082 278.15,424.0551 Q278.8063,422.602 280.0875,421.8207 Q281.3688,421.0395 283.2438,421.0395 Q284.1344,421.0395 284.8063,421.227 Q285.4781,421.3989 286.1656,421.7426 L285.3531,423.7582 Q284.7281,423.4457 284.1813,423.3207 Q283.65,423.1957 283.1656,423.1957 Q281.9938,423.1957 281.2906,423.727 Q280.5875,424.2582 280.2906,425.2114 Q279.9938,426.1645 279.9938,427.4301 Q279.9938,429.4457 280.7125,430.4145 Q281.4313,431.3676 283.025,431.3676 Q283.6188,431.3676 284.2438,431.2114 Q284.8688,431.0551 285.6969,430.6801 L285.6969,432.8989 Q284.9625,433.2114 284.1656,433.3676 Q283.3844,433.5239 282.6188,433.5239 Z " fill="#000000"/><text fill="#000000" font-family="sans-serif" font-size="12" lengthAdjust="spacing" textLength="40" x="302.85" y="431.258">Tokens</text><line style="stroke:#A80036;stroke-width:1.5;" x1="243.5" x2="370.5" y1="442.602" y2="442.602"/><rect fill="none" height="6" style="stroke:#C82930;stroke-width:1.0;" width="6" x="250.5" y="450.602"/><text fill="#000000" font-family="sans-serif" font-size="11" lengthAdjust="spacing" textLength="32" x="262.5" y="458.3609">ID: int</text><rect fill="none" height="6" style="stroke:#C82930;stroke-width:1.0;" width="6" x="250.5" y="465.5839"/><text fill="#000000" font-family="sans-serif" font-size="11" lengthAdjust="spacing" textLength="55" x="262.5" y="473.3428">userID: int</text><rect fill="none" height="6" style="stroke:#C82930;stroke-width:1.0;" width="6" x="250.5" y="480.5658"/><text fill="#000000" font-family="sans-serif" font-size="11" lengthAdjust="spacing" textLength="68" x="262.5" y="488.3247">token: String</text><rect fill="none" height="6" style="stroke:#C82930;stroke-width:1.0;" width="6" x="250.5" y="495.5476"/><text fill="#000000" font-family="sans-serif" font-size="11" lengthAdjust="spacing" textLength="103" x="262.5" y="503.3066">consumed: boolean</text><rect fill="none" height="6" style="stroke:#C82930;stroke-width:1.0;" width="6" x="250.5" y="510.5295"/><text fill="#000000" font-family="sans-serif" font-size="11" lengthAdjust="spacing" textLength="102" x="262.5" y="518.2884">created: Timestamp</text><line style="stroke:#A80036;stroke-width:1.5;" x1="243.5" x2="370.5" y1="525.5114" y2="525.5114"/><ellipse cx="253.5" cy="536.5114" fill="#84BE84" rx="3" ry="3" style="stroke:#038048;stroke-width:1.0;"/><text fill="#000000" font-family="sans-serif" font-size="11" lengthAdjust="spacing" textLength="96" x="262.5" y="541.2703">void create(Token)</text><ellipse cx="253.5" cy="551.4933" fill="#84BE84" rx="3" ry="3" style="stroke:#038048;stroke-width:1.0;"/><text fill="#000000" font-family="sans-serif" font-size="11" lengthAdjust="spacing" textLength="81" x="262.5" y="556.2522">void get(Token)</text><ellipse cx="253.5" cy="566.4752" fill="#84BE84" rx="3" ry="3" style="stroke:#038048;stroke-width:1.0;"/><text fill="#000000" font-family="sans-serif" font-size="11" lengthAdjust="spacing" textLength="101" x="262.5" y="571.2341">void update(Token)</text><ellipse cx="253.5" cy="581.4571" fill="#84BE84" rx="3" ry="3" style="stroke:#038048;stroke-width:1.0;"/><text fill="#000000" font-family="sans-serif" font-size="11" lengthAdjust="spacing" textLength="96" x="262.5" y="586.216">void delete(Token)</text><!--MD5=[7bff1aba3b0d0725284345139f4478e9]
class History--><rect codeLine="108" fill="#FEFECE" filter="url(#fp9jejpr33gi3)" height="182.837" id="History" style="stroke:#A80036;stroke-width:1.5;" width="157" x="758.5" y="410.602"/><ellipse cx="812.75" cy="426.602" fill="#ADD1B2" rx="11" ry="11" style="stroke:#A80036;stroke-width:1.0;"/><path d="M812.2188,433.5239 Q810.4688,433.5239 809.3281,432.7895 Q808.2031,432.0395 807.6406,430.6957 Q807.0938,429.3364 807.0938,427.5395 Q807.0938,425.5082 807.75,424.0551 Q808.4063,422.602 809.6875,421.8207 Q810.9688,421.0395 812.8438,421.0395 Q813.7344,421.0395 814.4063,421.227 Q815.0781,421.3989 815.7656,421.7426 L814.9531,423.7582 Q814.3281,423.4457 813.7813,423.3207 Q813.25,423.1957 812.7656,423.1957 Q811.5938,423.1957 810.8906,423.727 Q810.1875,424.2582 809.8906,425.2114 Q809.5938,426.1645 809.5938,427.4301 Q809.5938,429.4457 810.3125,430.4145 Q811.0313,431.3676 812.625,431.3676 Q813.2188,431.3676 813.8438,431.2114 Q814.4688,431.0551 815.2969,430.6801 L815.2969,432.8989 Q814.5625,433.2114 813.7656,433.3676 Q812.9844,433.5239 812.2188,433.5239 Z " fill="#000000"/><text fill="#000000" font-family="sans-serif" font-size="12" lengthAdjust="spacing" textLength="40" x="833.25" y="431.258">History</text><line style="stroke:#A80036;stroke-width:1.5;" x1="759.5" x2="914.5" y1="442.602" y2="442.602"/><rect fill="none" height="6" style="stroke:#C82930;stroke-width:1.0;" width="6" x="766.5" y="450.602"/><text fill="#000000" font-family="sans-serif" font-size="11" lengthAdjust="spacing" textLength="32" x="778.5" y="458.3609">ID: int</text><rect fill="none" height="6" style="stroke:#C82930;stroke-width:1.0;" width="6" x="766.5" y="465.5839"/><text fill="#000000" font-family="sans-serif" font-size="11" lengthAdjust="spacing" textLength="55" x="778.5" y="473.3428">userID: int</text><rect fill="none" height="6" style="stroke:#C82930;stroke-width:1.0;" width="6" x="766.5" y="480.5658"/><text fill="#000000" font-family="sans-serif" font-size="11" lengthAdjust="spacing" textLength="131" x="778.5" y="488.3247">activity: enum&lt;Activities&gt;</text><rect fill="none" height="6" style="stroke:#C82930;stroke-width:1.0;" width="6" x="766.5" y="495.5476"/><text fill="#000000" font-family="sans-serif" font-size="11" lengthAdjust="spacing" textLength="97" x="778.5" y="503.3066">description: String</text><rect fill="none" height="6" style="stroke:#C82930;stroke-width:1.0;" width="6" x="766.5" y="510.5295"/><text fill="#000000" font-family="sans-serif" font-size="11" lengthAdjust="spacing" textLength="53" x="778.5" y="518.2884">time: Date</text><line style="stroke:#A80036;stroke-width:1.5;" x1="759.5" x2="914.5" y1="525.5114" y2="525.5114"/><ellipse cx="769.5" cy="536.5114" fill="#84BE84" rx="3" ry="3" style="stroke:#038048;stroke-width:1.0;"/><text fill="#000000" font-family="sans-serif" font-size="11" lengthAdjust="spacing" textLength="102" x="778.5" y="541.2703">void create(History)</text><ellipse cx="769.5" cy="551.4933" fill="#84BE84" rx="3" ry="3" style="stroke:#038048;stroke-width:1.0;"/><text fill="#000000" font-family="sans-serif" font-size="11" lengthAdjust="spacing" textLength="87" x="778.5" y="556.2522">void get(History)</text><ellipse cx="769.5" cy="566.4752" fill="#84BE84" rx="3" ry="3" style="stroke:#038048;stroke-width:1.0;"/><text fill="#000000" font-family="sans-serif" font-size="11" lengthAdjust="spacing" textLength="107" x="778.5" y="571.2341">void update(History)</text><ellipse cx="769.5" cy="581.4571" fill="#84BE84" rx="3" ry="3" style="stroke:#038048;stroke-width:1.0;"/><text fill="#000000" font-family="sans-serif" font-size="11" lengthAdjust="spacing" textLength="102" x="778.5" y="586.216">void delete(History)</text><!--MD5=[787748180b332c0a2cec62d36be3dc2a]
class Flags--><rect codeLine="120" fill="#FEFECE" filter="url(#fp9jejpr33gi3)" height="137.8913" id="Flags" style="stroke:#A80036;stroke-width:1.5;" width="123" x="998.5" y="433.602"/><ellipse cx="1041.4" cy="449.602" fill="#ADD1B2" rx="11" ry="11" style="stroke:#A80036;stroke-width:1.0;"/><path d="M1040.8688,456.5239 Q1039.1188,456.5239 1037.9781,455.7895 Q1036.8531,455.0395 1036.2906,453.6957 Q1035.7438,452.3364 1035.7438,450.5395 Q1035.7438,448.5082 1036.4,447.0551 Q1037.0563,445.602 1038.3375,444.8207 Q1039.6188,444.0395 1041.4938,444.0395 Q1042.3844,444.0395 1043.0563,444.227 Q1043.7281,444.3989 1044.4156,444.7426 L1043.6031,446.7582 Q1042.9781,446.4457 1042.4313,446.3207 Q1041.9,446.1957 1041.4156,446.1957 Q1040.2438,446.1957 1039.5406,446.727 Q1038.8375,447.2582 1038.5406,448.2114 Q1038.2438,449.1645 1038.2438,450.4301 Q1038.2438,452.4457 1038.9625,453.4145 Q1039.6813,454.3676 1041.275,454.3676 Q1041.8688,454.3676 1042.4938,454.2114 Q1043.1188,454.0551 1043.9469,453.6801 L1043.9469,455.8989 Q1043.2125,456.2114 1042.4156,456.3676 Q1041.6344,456.5239 1040.8688,456.5239 Z " fill="#000000"/><text fill="#000000" font-family="sans-serif" font-size="12" lengthAdjust="spacing" textLength="29" x="1061.6" y="454.258">Flags</text><line style="stroke:#A80036;stroke-width:1.5;" x1="999.5" x2="1120.5" y1="465.602" y2="465.602"/><rect fill="none" height="6" style="stroke:#C82930;stroke-width:1.0;" width="6" x="1006.5" y="473.602"/><text fill="#000000" font-family="sans-serif" font-size="11" lengthAdjust="spacing" textLength="32" x="1018.5" y="481.3609">ID: int</text><rect fill="none" height="6" style="stroke:#C82930;stroke-width:1.0;" width="6" x="1006.5" y="488.5839"/><text fill="#000000" font-family="sans-serif" font-size="11" lengthAdjust="spacing" textLength="72" x="1018.5" y="496.3428">flaggedID: int</text><rect fill="none" height="6" style="stroke:#C82930;stroke-width:1.0;" width="6" x="1006.5" y="503.5658"/><text fill="#000000" font-family="sans-serif" font-size="11" lengthAdjust="spacing" textLength="70" x="1018.5" y="511.3247">flaggerID: int</text><rect fill="none" height="6" style="stroke:#C82930;stroke-width:1.0;" width="6" x="1006.5" y="518.5476"/><text fill="#000000" font-family="sans-serif" font-size="11" lengthAdjust="spacing" textLength="86" x="1018.5" y="526.3066">offense: Offense</text><rect fill="none" height="6" style="stroke:#C82930;stroke-width:1.0;" width="6" x="1006.5" y="533.5295"/><text fill="#000000" font-family="sans-serif" font-size="11" lengthAdjust="spacing" textLength="97" x="1018.5" y="541.2884">description: String</text><rect fill="none" height="6" style="stroke:#C82930;stroke-width:1.0;" width="6" x="1006.5" y="548.5114"/><text fill="#000000" font-family="sans-serif" font-size="11" lengthAdjust="spacing" textLength="86" x="1018.5" y="556.2703">time: Timestamp</text><line style="stroke:#A80036;stroke-width:1.5;" x1="999.5" x2="1120.5" y1="563.4933" y2="563.4933"/><path d="M6,447.102 L6,545.6321 A0,0 0 0 0 6,545.6321 L183,545.6321 A0,0 0 0 0 183,545.6321 L183,500.367 L246.5,484.0567 L183,492.367 L183,457.102 L173,447.102 L6,447.102 A0,0 0 0 0 6,447.102 " fill="#FBFB77" filter="url(#fp9jejpr33gi3)" style="stroke:#A80036;stroke-width:1.0;"/><path d="M173,447.102 L173,457.102 L183,457.102 L173,447.102 " fill="#FBFB77" style="stroke:#A80036;stroke-width:1.0;"/><text fill="#000000" font-family="sans-serif" font-size="13" lengthAdjust="spacing" textLength="151" x="12" y="465.999">Tokens are secure strings</text><text fill="#000000" font-family="sans-serif" font-size="13" lengthAdjust="spacing" textLength="135" x="12" y="483.705">of text that can allow a</text><text fill="#000000" font-family="sans-serif" font-size="13" lengthAdjust="spacing" textLength="139" x="12" y="501.411">user that has forgotten</text><text fill="#000000" font-family="sans-serif" font-size="13" lengthAdjust="spacing" textLength="153" x="12" y="519.117">their password to recover</text><text fill="#000000" font-family="sans-serif" font-size="13" lengthAdjust="spacing" textLength="82" x="12" y="536.8231">their account.</text><!--MD5=[4b04aa9ae0237c9635b1b3153a1cc184]
reverse link Users to Podcaster--><path codeLine="57" d="M627.28,306.632 C607.13,334.232 586.01,363.332 566.5,390.602 C553.27,409.082 538.95,429.442 526.29,447.572 " fill="none" id="Users-backto-Podcaster" style="stroke:#A80036;stroke-width:1.0;"/><polygon fill="none" points="621.89,302.142,639.34,290.132,633.19,310.402,621.89,302.142" style="stroke:#A80036;stroke-width:1.0;"/><!--MD5=[492aa0edd302017a4389883eafe7768a]
reverse link Users to Administrator--><path codeLine="58" d="M688.03,311.842 C675.48,362.752 661.95,417.622 652.74,455.012 " fill="none" id="Users-backto-Administrator" style="stroke:#A80036;stroke-width:1.0;"/><polygon fill="none" points="681.29,309.942,692.87,292.202,694.88,313.292,681.29,309.942" style="stroke:#A80036;stroke-width:1.0;"/><!--MD5=[d65ac18829e36a7fc84932f8fcba002a]
link Users to Tokens--><path codeLine="60" d="M639.35,228.982 C575.23,269.122 484.82,329.182 412.5,390.602 C399.92,401.292 387.22,413.322 375.21,425.392 " fill="none" id="Users-to-Tokens" style="stroke:#A80036;stroke-width:1.0;"/><polygon fill="#A80036" points="371.5,429.142,380.6708,425.5508,375.014,425.5851,374.9798,419.9283,371.5,429.142" style="stroke:#A80036;stroke-width:1.0;"/><text fill="#000000" font-family="sans-serif" font-size="13" lengthAdjust="spacing" textLength="61" x="468.5" y="356.499">Generates</text><text fill="#000000" font-family="sans-serif" font-size="13" lengthAdjust="spacing" textLength="7" x="624.5924" y="229.7363">1</text><text fill="#000000" font-family="sans-serif" font-size="13" lengthAdjust="spacing" textLength="7" x="379.3688" y="406.289">*</text><!--MD5=[2eaef4b88f9fd0cb09de08d97ee15b2a]
link Users to History--><path codeLine="61" d="M761.42,292.202 C774.95,329.252 789.86,370.102 802.87,405.732 " fill="none" id="Users-to-History" style="stroke:#A80036;stroke-width:1.0;"/><polygon fill="#A80036" points="804.61,410.502,805.2839,400.6762,802.8967,405.8047,797.7682,403.4175,804.61,410.502" style="stroke:#A80036;stroke-width:1.0;"/><text fill="#000000" font-family="sans-serif" font-size="13" lengthAdjust="spacing" textLength="29" x="786.5" y="356.499">Logs</text><text fill="#000000" font-family="sans-serif" font-size="13" lengthAdjust="spacing" textLength="7" x="763.663" y="314.7078">1</text><text fill="#000000" font-family="sans-serif" font-size="13" lengthAdjust="spacing" textLength="7" x="794.5257" y="398.834">*</text><!--MD5=[9ffbb35f2bdd328aee727915645f22c4]
link Users to Flags--><path codeLine="62" d="M800.51,248.302 C846.97,288.692 906.1,341.422 956.5,390.602 C969.2,402.992 982.39,416.522 994.95,429.742 " fill="none" id="Users-to-Flags" style="stroke:#A80036;stroke-width:1.0;"/><polygon fill="#A80036" points="998.48,433.462,995.187,424.1799,995.0385,429.8348,989.3836,429.6863,998.48,433.462" style="stroke:#A80036;stroke-width:1.0;"/><text fill="#000000" font-family="sans-serif" font-size="13" lengthAdjust="spacing" textLength="31" x="919.5" y="356.499">Flags</text><text fill="#000000" font-family="sans-serif" font-size="13" lengthAdjust="spacing" textLength="7" x="808.6713" y="257.2402">1</text><text fill="#000000" font-family="sans-serif" font-size="13" lengthAdjust="spacing" textLength="7" x="984.3684" y="421.9117">*</text><!--MD5=[b01d2ea2ac3e67ce209d39b5ab2e3cd9]
link Users to UserStatus--><path codeLine="64" d="M800.68,193.062 C903.76,214.392 1079.35,267.532 1162.5,390.602 C1224.61,482.542 1210.28,620.362 1196.28,694.152 " fill="none" id="Users-to-UserStatus" style="stroke:#A80036;stroke-width:1.0;"/><polygon fill="#A80036" points="1195.27,699.352,1200.9168,691.2827,1196.2259,694.4442,1193.0644,689.7533,1195.27,699.352" style="stroke:#A80036;stroke-width:1.0;"/><!--MD5=[a0da37843c666de0986ea4ffd10a9893]
link History to Activities--><path codeLine="65" d="M876.6,592.902 C891.49,627.282 907.92,665.232 920.65,694.632 " fill="none" id="History-to-Activities" style="stroke:#A80036;stroke-width:1.0;"/><polygon fill="#A80036" points="922.66,699.272,922.7543,689.4236,920.6732,694.6837,915.4131,692.6025,922.66,699.272" style="stroke:#A80036;stroke-width:1.0;"/><!--MD5=[674360f5db910bb3f280b13e156ca089]
link Flags to Offense--><path codeLine="66" d="M1060.5,570.872 C1060.5,609.982 1060.5,658.472 1060.5,694.362 " fill="none" id="Flags-to-Offense" style="stroke:#A80036;stroke-width:1.0;"/><polygon fill="#A80036" points="1060.5,699.562,1064.5,690.562,1060.5,694.562,1056.5,690.562,1060.5,699.562" style="stroke:#A80036;stroke-width:1.0;"/><!--MD5=[fa0c9c83debdfb3eeafb9d913baadaae]
link Tokens$$$LEFT to Tokens--><!--MD5=[83440dc0715ab62bd6c87f9aedf0c877]
link LoginView to ForgotPasswordView--><!--MD5=[36d1910b5a07b0ef489369e37e451e1b]
link LoginView to ResetPasswordView--><!--MD5=[9fb2ff8729666285d909fc9b2af3550d]
@startuml
package com.druid.gui.views {
   class LoginView {
      + void start()
      + void handleLoginClick()
      + void handleResetPasswordClick()
   }

   class ForgotPasswordView {
      + void start()
      + void handleSendClick()
      + void handleCancelClick()
   }

   class ResetPasswordView {
      + void start()
      + void handleUpdateClick()
      + void handleCancelClick()
   }
}

package com.druid.services {
   class UserService {
      + void update()
      + Optional<User> fetchOne(User)
      + Optional<User> authenticate()
   }

   class TokenService {
      + void generate()
      + void consume()
      + Optional<Token> fetchOne(Token)
   }
}

package com.druid.enums {
   enum UserStatus {
      ACTIVE 
      DISABLED
      BANNED
   }

   enum Activities {
      SECURITY
      BILLING
      PROFILE
   }

   enum Offense {
      HARASSMENT 
      SPAM
      VIOLENCE
   }
}

package com.druid.models #DDDDDD {

Users <|- - Podcaster
Users <|- - Administrator

Users "1" - -> "*" Tokens: Generates
Users "1" - -> "*" History: Logs
Users "1" - -> "*" Flags: Flags

Users - -> UserStatus
History - -> Activities
Flags - -> Offense

   class Users {
      - ID: int 
      - firstName: String 
      - lastName: String 
      - username: String 
      - password: String 
      - email: String 
      - status: Enum<UserStatus>
      - avatar: String
      + void create(User)
      + void get(User)
      + void update(User)
      + void delete(User)
   }

   class Podcaster {
      - ID: int
      - firstName: String 
      - lastName: String 
      - biography: String 
   }

   class Administrator {
      - ID: int
      - firstName: String 
      - lastName: String 
   }

   class Tokens {
      - ID: int 
      - userID: int 
      - token: String 
      - consumed: boolean 
      - created: Timestamp 
      + void create(Token)
      + void get(Token)
      + void update(Token)
      + void delete(Token)
   }

    class History {
      - ID: int
      - userID: int
      - activity: enum<Activities>
      - description: String
      - time: Date
      + void create(History)
      + void get(History)
      + void update(History)
      + void delete(History)
    }

    class Flags {
      - ID: int
      - flaggedID: int
      - flaggerID: int
      -	offense: Offense
      - description: String
      - time: Timestamp
    }
}

note left of Tokens::token
   Tokens are secure strings 
   of text that can allow a 
   user that has forgotten 
   their password to recover 
   their account.
end note
@enduml

PlantUML version 1.2021.16(Wed Dec 08 18:25:22 CET 2021)
(GPL source distribution)
Java Runtime: OpenJDK Runtime Environment
JVM: OpenJDK 64-Bit Server VM
Default Encoding: UTF-8
Language: en
Country: US
--></g></svg>