<?xml version="1.0" encoding="UTF-8" standalone="no"?><svg xmlns="http://www.w3.org/2000/svg" xmlns:xlink="http://www.w3.org/1999/xlink" contentScriptType="application/ecmascript" contentStyleType="text/css" height="635px" preserveAspectRatio="none" style="width:2123px;height:635px;background:#FFFFFF;" version="1.1" viewBox="0 0 2123 635" width="2123px" zoomAndPan="magnify"><defs><filter height="300%" id="f35di7cuaturn" width="300%" x="-1" y="-1"><feGaussianBlur result="blurOut" stdDeviation="2.0"/><feColorMatrix in="blurOut" result="blurOut2" type="matrix" values="0 0 0 0 0 0 0 0 0 0 0 0 0 0 0 0 0 0 .4 0"/><feOffset dx="4.0" dy="4.0" in="blurOut2" result="blurOut3"/><feBlend in="SourceGraphic" in2="blurOut3" mode="normal"/></filter></defs><g><!--MD5=[7108b54212a9e23d61b9e1c1a9e4d86e]
cluster com.druid.gui.views--><polygon fill="#FFFFFF" filter="url(#f35di7cuaturn)" points="1204.5,93.602,1350.5,93.602,1357.5,118.6699,1621.5,118.6699,1621.5,564.102,1204.5,564.102,1204.5,93.602" style="stroke:#000000;stroke-width:1.5;"/><line style="stroke:#000000;stroke-width:1.5;" x1="1204.5" x2="1357.5" y1="118.6699" y2="118.6699"/><text fill="#000000" font-family="sans-serif" font-size="14" font-weight="bold" lengthAdjust="spacing" textLength="140" x="1208.5" y="110.5679">com.druid.gui.views</text><!--MD5=[6e668d115055c9a82136967968fcb32c]
cluster com.druid.services--><polygon fill="#FFFFFF" filter="url(#f35di7cuaturn)" points="1645.5,93.602,1781.5,93.602,1788.5,118.6699,2106.5,118.6699,2106.5,240.602,1645.5,240.602,1645.5,93.602" style="stroke:#000000;stroke-width:1.5;"/><line style="stroke:#000000;stroke-width:1.5;" x1="1645.5" x2="1788.5" y1="118.6699" y2="118.6699"/><text fill="#000000" font-family="sans-serif" font-size="14" font-weight="bold" lengthAdjust="spacing" textLength="130" x="1649.5" y="110.5679">com.druid.services</text><!--MD5=[e1e0d0f38aa5a73eeb52742e0840c100]
cluster com.druid.enums--><polygon fill="#FFFFFF" filter="url(#f35di7cuaturn)" points="818.5,417.102,946.5,417.102,953.5,442.1699,1180.5,442.1699,1180.5,564.102,818.5,564.102,818.5,417.102" style="stroke:#000000;stroke-width:1.5;"/><line style="stroke:#000000;stroke-width:1.5;" x1="818.5" x2="953.5" y1="442.1699" y2="442.1699"/><text fill="#000000" font-family="sans-serif" font-size="14" font-weight="bold" lengthAdjust="spacing" textLength="122" x="822.5" y="434.0679">com.druid.enums</text><!--MD5=[04edff00a165574247701465ecf4fbc0]
cluster com.druid.models--><polygon fill="#DDDDDD" filter="url(#f35di7cuaturn)" points="202.5,6.602,334.5,6.602,341.5,31.6699,794.5,31.6699,794.5,628.602,202.5,628.602,202.5,6.602" style="stroke:#000000;stroke-width:1.5;"/><line style="stroke:#000000;stroke-width:1.5;" x1="202.5" x2="341.5" y1="31.6699" y2="31.6699"/><text fill="#000000" font-family="sans-serif" font-size="14" font-weight="bold" lengthAdjust="spacing" textLength="126" x="206.5" y="23.5679">com.druid.models</text><!--MD5=[8309b17d830045003489ce4c308a9814]
class LoginView--><rect codeLine="2" fill="#FEFECE" filter="url(#f35di7cuaturn)" height="92.9457" id="LoginView" style="stroke:#A80036;stroke-width:1.5;" width="197" x="1221" y="131.602"/><ellipse cx="1287.25" cy="147.602" fill="#ADD1B2" rx="11" ry="11" style="stroke:#A80036;stroke-width:1.0;"/><path d="M1286.7188,154.5239 Q1284.9688,154.5239 1283.8281,153.7895 Q1282.7031,153.0395 1282.1406,151.6957 Q1281.5938,150.3364 1281.5938,148.5395 Q1281.5938,146.5082 1282.25,145.0551 Q1282.9063,143.602 1284.1875,142.8207 Q1285.4688,142.0395 1287.3438,142.0395 Q1288.2344,142.0395 1288.9063,142.227 Q1289.5781,142.3989 1290.2656,142.7426 L1289.4531,144.7582 Q1288.8281,144.4457 1288.2813,144.3207 Q1287.75,144.1957 1287.2656,144.1957 Q1286.0938,144.1957 1285.3906,144.727 Q1284.6875,145.2582 1284.3906,146.2114 Q1284.0938,147.1645 1284.0938,148.4301 Q1284.0938,150.4457 1284.8125,151.4145 Q1285.5313,152.3676 1287.125,152.3676 Q1287.7188,152.3676 1288.3438,152.2114 Q1288.9688,152.0551 1289.7969,151.6801 L1289.7969,153.8989 Q1289.0625,154.2114 1288.2656,154.3676 Q1287.4844,154.5239 1286.7188,154.5239 Z " fill="#000000"/><text fill="#000000" font-family="sans-serif" font-size="12" lengthAdjust="spacing" textLength="56" x="1307.75" y="152.258">LoginView</text><line style="stroke:#A80036;stroke-width:1.5;" x1="1222" x2="1417" y1="163.602" y2="163.602"/><line style="stroke:#A80036;stroke-width:1.5;" x1="1222" x2="1417" y1="171.602" y2="171.602"/><ellipse cx="1232" cy="182.602" fill="#84BE84" rx="3" ry="3" style="stroke:#038048;stroke-width:1.0;"/><text fill="#000000" font-family="sans-serif" font-size="11" lengthAdjust="spacing" textLength="56" x="1241" y="187.3609">void start()</text><ellipse cx="1232" cy="197.5839" fill="#84BE84" rx="3" ry="3" style="stroke:#038048;stroke-width:1.0;"/><text fill="#000000" font-family="sans-serif" font-size="11" lengthAdjust="spacing" textLength="122" x="1241" y="202.3428">void handleLoginClick()</text><ellipse cx="1232" cy="212.5658" fill="#84BE84" rx="3" ry="3" style="stroke:#038048;stroke-width:1.0;"/><text fill="#000000" font-family="sans-serif" font-size="11" lengthAdjust="spacing" textLength="171" x="1241" y="217.3247">void handleResetPasswordClick()</text><!--MD5=[db83e8cce871975227a211a29b730a1c]
class ForgotPasswordView--><rect codeLine="8" fill="#FEFECE" filter="url(#f35di7cuaturn)" height="92.9457" id="ForgotPasswordView" style="stroke:#A80036;stroke-width:1.5;" width="152" x="1453.5" y="131.602"/><ellipse cx="1470.3" cy="147.602" fill="#ADD1B2" rx="11" ry="11" style="stroke:#A80036;stroke-width:1.0;"/><path d="M1469.7688,154.5239 Q1468.0188,154.5239 1466.8781,153.7895 Q1465.7531,153.0395 1465.1906,151.6957 Q1464.6438,150.3364 1464.6438,148.5395 Q1464.6438,146.5082 1465.3,145.0551 Q1465.9563,143.602 1467.2375,142.8207 Q1468.5188,142.0395 1470.3938,142.0395 Q1471.2844,142.0395 1471.9563,142.227 Q1472.6281,142.3989 1473.3156,142.7426 L1472.5031,144.7582 Q1471.8781,144.4457 1471.3313,144.3207 Q1470.8,144.1957 1470.3156,144.1957 Q1469.1438,144.1957 1468.4406,144.727 Q1467.7375,145.2582 1467.4406,146.2114 Q1467.1438,147.1645 1467.1438,148.4301 Q1467.1438,150.4457 1467.8625,151.4145 Q1468.5813,152.3676 1470.175,152.3676 Q1470.7688,152.3676 1471.3938,152.2114 Q1472.0188,152.0551 1472.8469,151.6801 L1472.8469,153.8989 Q1472.1125,154.2114 1471.3156,154.3676 Q1470.5344,154.5239 1469.7688,154.5239 Z " fill="#000000"/><text fill="#000000" font-family="sans-serif" font-size="12" lengthAdjust="spacing" textLength="116" x="1484.7" y="152.258">ForgotPasswordView</text><line style="stroke:#A80036;stroke-width:1.5;" x1="1454.5" x2="1604.5" y1="163.602" y2="163.602"/><line style="stroke:#A80036;stroke-width:1.5;" x1="1454.5" x2="1604.5" y1="171.602" y2="171.602"/><ellipse cx="1464.5" cy="182.602" fill="#84BE84" rx="3" ry="3" style="stroke:#038048;stroke-width:1.0;"/><text fill="#000000" font-family="sans-serif" font-size="11" lengthAdjust="spacing" textLength="56" x="1473.5" y="187.3609">void start()</text><ellipse cx="1464.5" cy="197.5839" fill="#84BE84" rx="3" ry="3" style="stroke:#038048;stroke-width:1.0;"/><text fill="#000000" font-family="sans-serif" font-size="11" lengthAdjust="spacing" textLength="118" x="1473.5" y="202.3428">void handleSendClick()</text><ellipse cx="1464.5" cy="212.5658" fill="#84BE84" rx="3" ry="3" style="stroke:#038048;stroke-width:1.0;"/><text fill="#000000" font-family="sans-serif" font-size="11" lengthAdjust="spacing" textLength="126" x="1473.5" y="217.3247">void handleCancelClick()</text><!--MD5=[42696e6c556b2f609b7a3085474e56d8]
class ResetPasswordView--><rect codeLine="14" fill="#FEFECE" filter="url(#f35di7cuaturn)" height="92.9457" id="ResetPasswordView" style="stroke:#A80036;stroke-width:1.5;" width="156" x="1241.5" y="455.102"/><ellipse cx="1262.35" cy="471.102" fill="#ADD1B2" rx="11" ry="11" style="stroke:#A80036;stroke-width:1.0;"/><path d="M1261.8188,478.0239 Q1260.0688,478.0239 1258.9281,477.2895 Q1257.8031,476.5395 1257.2406,475.1957 Q1256.6938,473.8364 1256.6938,472.0395 Q1256.6938,470.0082 1257.35,468.5551 Q1258.0063,467.102 1259.2875,466.3207 Q1260.5688,465.5395 1262.4438,465.5395 Q1263.3344,465.5395 1264.0063,465.727 Q1264.6781,465.8989 1265.3656,466.2426 L1264.5531,468.2582 Q1263.9281,467.9457 1263.3813,467.8207 Q1262.85,467.6957 1262.3656,467.6957 Q1261.1938,467.6957 1260.4906,468.227 Q1259.7875,468.7582 1259.4906,469.7114 Q1259.1938,470.6645 1259.1938,471.9301 Q1259.1938,473.9457 1259.9125,474.9145 Q1260.6313,475.8676 1262.225,475.8676 Q1262.8188,475.8676 1263.4438,475.7114 Q1264.0688,475.5551 1264.8969,475.1801 L1264.8969,477.3989 Q1264.1625,477.7114 1263.3656,477.8676 Q1262.5844,478.0239 1261.8188,478.0239 Z " fill="#000000"/><text fill="#000000" font-family="sans-serif" font-size="12" lengthAdjust="spacing" textLength="111" x="1277.65" y="475.758">ResetPasswordView</text><line style="stroke:#A80036;stroke-width:1.5;" x1="1242.5" x2="1396.5" y1="487.102" y2="487.102"/><line style="stroke:#A80036;stroke-width:1.5;" x1="1242.5" x2="1396.5" y1="495.102" y2="495.102"/><ellipse cx="1252.5" cy="506.102" fill="#84BE84" rx="3" ry="3" style="stroke:#038048;stroke-width:1.0;"/><text fill="#000000" font-family="sans-serif" font-size="11" lengthAdjust="spacing" textLength="56" x="1261.5" y="510.8609">void start()</text><ellipse cx="1252.5" cy="521.0839" fill="#84BE84" rx="3" ry="3" style="stroke:#038048;stroke-width:1.0;"/><text fill="#000000" font-family="sans-serif" font-size="11" lengthAdjust="spacing" textLength="130" x="1261.5" y="525.8428">void handleUpdateClick()</text><ellipse cx="1252.5" cy="536.0658" fill="#84BE84" rx="3" ry="3" style="stroke:#038048;stroke-width:1.0;"/><text fill="#000000" font-family="sans-serif" font-size="11" lengthAdjust="spacing" textLength="126" x="1261.5" y="540.8247">void handleCancelClick()</text><!--MD5=[e4ac4745f81aec2db60ad4ddae80b659]
class UserService--><rect codeLine="22" fill="#FEFECE" filter="url(#f35di7cuaturn)" height="92.9457" id="UserService" style="stroke:#A80036;stroke-width:1.5;" width="189" x="1901" y="131.602"/><ellipse cx="1957.25" cy="147.602" fill="#ADD1B2" rx="11" ry="11" style="stroke:#A80036;stroke-width:1.0;"/><path d="M1956.7188,154.5239 Q1954.9688,154.5239 1953.8281,153.7895 Q1952.7031,153.0395 1952.1406,151.6957 Q1951.5938,150.3364 1951.5938,148.5395 Q1951.5938,146.5082 1952.25,145.0551 Q1952.9063,143.602 1954.1875,142.8207 Q1955.4688,142.0395 1957.3438,142.0395 Q1958.2344,142.0395 1958.9063,142.227 Q1959.5781,142.3989 1960.2656,142.7426 L1959.4531,144.7582 Q1958.8281,144.4457 1958.2813,144.3207 Q1957.75,144.1957 1957.2656,144.1957 Q1956.0938,144.1957 1955.3906,144.727 Q1954.6875,145.2582 1954.3906,146.2114 Q1954.0938,147.1645 1954.0938,148.4301 Q1954.0938,150.4457 1954.8125,151.4145 Q1955.5313,152.3676 1957.125,152.3676 Q1957.7188,152.3676 1958.3438,152.2114 Q1958.9688,152.0551 1959.7969,151.6801 L1959.7969,153.8989 Q1959.0625,154.2114 1958.2656,154.3676 Q1957.4844,154.5239 1956.7188,154.5239 Z " fill="#000000"/><text fill="#000000" font-family="sans-serif" font-size="12" lengthAdjust="spacing" textLength="68" x="1977.75" y="152.258">UserService</text><line style="stroke:#A80036;stroke-width:1.5;" x1="1902" x2="2089" y1="163.602" y2="163.602"/><line style="stroke:#A80036;stroke-width:1.5;" x1="1902" x2="2089" y1="171.602" y2="171.602"/><ellipse cx="1912" cy="182.602" fill="#84BE84" rx="3" ry="3" style="stroke:#038048;stroke-width:1.0;"/><text fill="#000000" font-family="sans-serif" font-size="11" lengthAdjust="spacing" textLength="69" x="1921" y="187.3609">void update()</text><ellipse cx="1912" cy="197.5839" fill="#84BE84" rx="3" ry="3" style="stroke:#038048;stroke-width:1.0;"/><text fill="#000000" font-family="sans-serif" font-size="11" lengthAdjust="spacing" textLength="163" x="1921" y="202.3428">Optional&lt;User&gt; fetchOne(User)</text><ellipse cx="1912" cy="212.5658" fill="#84BE84" rx="3" ry="3" style="stroke:#038048;stroke-width:1.0;"/><text fill="#000000" font-family="sans-serif" font-size="11" lengthAdjust="spacing" textLength="156" x="1921" y="217.3247">Optional&lt;User&gt; authenticate()</text><!--MD5=[9d309a25205a4dcbe5c72e626122d3aa]
class TokenService--><rect codeLine="28" fill="#FEFECE" filter="url(#f35di7cuaturn)" height="92.9457" id="TokenService" style="stroke:#A80036;stroke-width:1.5;" width="205" x="1661" y="131.602"/><ellipse cx="1721.75" cy="147.602" fill="#ADD1B2" rx="11" ry="11" style="stroke:#A80036;stroke-width:1.0;"/><path d="M1721.2188,154.5239 Q1719.4688,154.5239 1718.3281,153.7895 Q1717.2031,153.0395 1716.6406,151.6957 Q1716.0938,150.3364 1716.0938,148.5395 Q1716.0938,146.5082 1716.75,145.0551 Q1717.4063,143.602 1718.6875,142.8207 Q1719.9688,142.0395 1721.8438,142.0395 Q1722.7344,142.0395 1723.4063,142.227 Q1724.0781,142.3989 1724.7656,142.7426 L1723.9531,144.7582 Q1723.3281,144.4457 1722.7813,144.3207 Q1722.25,144.1957 1721.7656,144.1957 Q1720.5938,144.1957 1719.8906,144.727 Q1719.1875,145.2582 1718.8906,146.2114 Q1718.5938,147.1645 1718.5938,148.4301 Q1718.5938,150.4457 1719.3125,151.4145 Q1720.0313,152.3676 1721.625,152.3676 Q1722.2188,152.3676 1722.8438,152.2114 Q1723.4688,152.0551 1724.2969,151.6801 L1724.2969,153.8989 Q1723.5625,154.2114 1722.7656,154.3676 Q1721.9844,154.5239 1721.2188,154.5239 Z " fill="#000000"/><text fill="#000000" font-family="sans-serif" font-size="12" lengthAdjust="spacing" textLength="75" x="1742.25" y="152.258">TokenService</text><line style="stroke:#A80036;stroke-width:1.5;" x1="1662" x2="1865" y1="163.602" y2="163.602"/><line style="stroke:#A80036;stroke-width:1.5;" x1="1662" x2="1865" y1="171.602" y2="171.602"/><ellipse cx="1672" cy="182.602" fill="#84BE84" rx="3" ry="3" style="stroke:#038048;stroke-width:1.0;"/><text fill="#000000" font-family="sans-serif" font-size="11" lengthAdjust="spacing" textLength="79" x="1681" y="187.3609">void generate()</text><ellipse cx="1672" cy="197.5839" fill="#84BE84" rx="3" ry="3" style="stroke:#038048;stroke-width:1.0;"/><text fill="#000000" font-family="sans-serif" font-size="11" lengthAdjust="spacing" textLength="79" x="1681" y="202.3428">void consume()</text><ellipse cx="1672" cy="212.5658" fill="#84BE84" rx="3" ry="3" style="stroke:#038048;stroke-width:1.0;"/><text fill="#000000" font-family="sans-serif" font-size="11" lengthAdjust="spacing" textLength="179" x="1681" y="217.3247">Optional&lt;Token&gt; fetchOne(Token)</text><!--MD5=[51fd3fce36c976f35b405d5800336138]
class UserStatus--><rect codeLine="36" fill="#FEFECE" filter="url(#f35di7cuaturn)" height="92.9457" id="UserStatus" style="stroke:#A80036;stroke-width:1.5;" width="94" x="834.5" y="455.102"/><ellipse cx="849.5" cy="471.102" fill="#EB937F" rx="11" ry="11" style="stroke:#A80036;stroke-width:1.0;"/><path d="M845.8594,477.602 L845.8594,465.4614 L853.5156,465.4614 L853.5156,467.5864 L848.2344,467.5864 L848.2344,470.2426 L853.25,470.2426 L853.25,472.3676 L848.2344,472.3676 L848.2344,475.477 L853.5156,475.477 L853.5156,477.602 L845.8594,477.602 Z " fill="#000000"/><text fill="#000000" font-family="sans-serif" font-size="12" lengthAdjust="spacing" textLength="62" x="863.5" y="475.758">UserStatus</text><line style="stroke:#A80036;stroke-width:1.5;" x1="835.5" x2="927.5" y1="487.102" y2="487.102"/><text fill="#000000" font-family="sans-serif" font-size="11" lengthAdjust="spacing" textLength="37" x="840.5" y="502.8609">ACTIVE</text><text fill="#000000" font-family="sans-serif" font-size="11" lengthAdjust="spacing" textLength="52" x="840.5" y="517.8428">DISABLED</text><text fill="#000000" font-family="sans-serif" font-size="11" lengthAdjust="spacing" textLength="44" x="840.5" y="532.8247">BANNED</text><line style="stroke:#A80036;stroke-width:1.5;" x1="835.5" x2="927.5" y1="540.0476" y2="540.0476"/><!--MD5=[a369faf6373d890c6ba8a9ef2654171b]
class Activities--><rect codeLine="42" fill="#FEFECE" filter="url(#f35di7cuaturn)" height="92.9457" id="Activities" style="stroke:#A80036;stroke-width:1.5;" width="82" x="963.5" y="455.102"/><ellipse cx="978.5" cy="471.102" fill="#EB937F" rx="11" ry="11" style="stroke:#A80036;stroke-width:1.0;"/><path d="M974.8594,477.602 L974.8594,465.4614 L982.5156,465.4614 L982.5156,467.5864 L977.2344,467.5864 L977.2344,470.2426 L982.25,470.2426 L982.25,472.3676 L977.2344,472.3676 L977.2344,475.477 L982.5156,475.477 L982.5156,477.602 L974.8594,477.602 Z " fill="#000000"/><text fill="#000000" font-family="sans-serif" font-size="12" lengthAdjust="spacing" textLength="50" x="992.5" y="475.758">Activities</text><line style="stroke:#A80036;stroke-width:1.5;" x1="964.5" x2="1044.5" y1="487.102" y2="487.102"/><text fill="#000000" font-family="sans-serif" font-size="11" lengthAdjust="spacing" textLength="50" x="969.5" y="502.8609">SECURITY</text><text fill="#000000" font-family="sans-serif" font-size="11" lengthAdjust="spacing" textLength="43" x="969.5" y="517.8428">BILLING</text><text fill="#000000" font-family="sans-serif" font-size="11" lengthAdjust="spacing" textLength="45" x="969.5" y="532.8247">PROFILE</text><line style="stroke:#A80036;stroke-width:1.5;" x1="964.5" x2="1044.5" y1="540.0476" y2="540.0476"/><!--MD5=[0bc995f86cefd7304b6bfe9f2b552bfd]
class Offense--><rect codeLine="48" fill="#FEFECE" filter="url(#f35di7cuaturn)" height="92.9457" id="Offense" style="stroke:#A80036;stroke-width:1.5;" width="83" x="1081" y="455.102"/><ellipse cx="1099.15" cy="471.102" fill="#EB937F" rx="11" ry="11" style="stroke:#A80036;stroke-width:1.0;"/><path d="M1095.5094,477.602 L1095.5094,465.4614 L1103.1656,465.4614 L1103.1656,467.5864 L1097.8844,467.5864 L1097.8844,470.2426 L1102.9,470.2426 L1102.9,472.3676 L1097.8844,472.3676 L1097.8844,475.477 L1103.1656,475.477 L1103.1656,477.602 L1095.5094,477.602 Z " fill="#000000"/><text fill="#000000" font-family="sans-serif" font-size="12" lengthAdjust="spacing" textLength="44" x="1113.85" y="475.758">Offense</text><line style="stroke:#A80036;stroke-width:1.5;" x1="1082" x2="1163" y1="487.102" y2="487.102"/><text fill="#000000" font-family="sans-serif" font-size="11" lengthAdjust="spacing" textLength="71" x="1087" y="502.8609">HARASSMENT</text><text fill="#000000" font-family="sans-serif" font-size="11" lengthAdjust="spacing" textLength="30" x="1087" y="517.8428">SPAM</text><text fill="#000000" font-family="sans-serif" font-size="11" lengthAdjust="spacing" textLength="53" x="1087" y="532.8247">VIOLENCE</text><line style="stroke:#A80036;stroke-width:1.5;" x1="1082" x2="1163" y1="540.0476" y2="540.0476"/><!--MD5=[09a5b4adb0ee554eafb73b413209c7bf]
class Users--><rect codeLine="61" fill="#FEFECE" filter="url(#f35di7cuaturn)" height="227.7827" id="Users" style="stroke:#A80036;stroke-width:1.5;" width="161" x="243.5" y="65.102"/><ellipse cx="303.25" cy="81.102" fill="#ADD1B2" rx="11" ry="11" style="stroke:#A80036;stroke-width:1.0;"/><path d="M302.7188,88.0239 Q300.9688,88.0239 299.8281,87.2895 Q298.7031,86.5395 298.1406,85.1957 Q297.5938,83.8364 297.5938,82.0395 Q297.5938,80.0082 298.25,78.5551 Q298.9063,77.102 300.1875,76.3207 Q301.4688,75.5395 303.3438,75.5395 Q304.2344,75.5395 304.9063,75.727 Q305.5781,75.8989 306.2656,76.2426 L305.4531,78.2582 Q304.8281,77.9457 304.2813,77.8207 Q303.75,77.6957 303.2656,77.6957 Q302.0938,77.6957 301.3906,78.227 Q300.6875,78.7582 300.3906,79.7114 Q300.0938,80.6645 300.0938,81.9301 Q300.0938,83.9457 300.8125,84.9145 Q301.5313,85.8676 303.125,85.8676 Q303.7188,85.8676 304.3438,85.7114 Q304.9688,85.5551 305.7969,85.1801 L305.7969,87.3989 Q305.0625,87.7114 304.2656,87.8676 Q303.4844,88.0239 302.7188,88.0239 Z " fill="#000000"/><text fill="#000000" font-family="sans-serif" font-size="12" lengthAdjust="spacing" textLength="33" x="323.75" y="85.758">Users</text><line style="stroke:#A80036;stroke-width:1.5;" x1="244.5" x2="403.5" y1="97.102" y2="97.102"/><rect fill="none" height="6" style="stroke:#C82930;stroke-width:1.0;" width="6" x="251.5" y="105.102"/><text fill="#000000" font-family="sans-serif" font-size="11" lengthAdjust="spacing" textLength="32" x="263.5" y="112.8609">ID: int</text><rect fill="none" height="6" style="stroke:#C82930;stroke-width:1.0;" width="6" x="251.5" y="120.0839"/><text fill="#000000" font-family="sans-serif" font-size="11" lengthAdjust="spacing" textLength="89" x="263.5" y="127.8428">firstName: String</text><rect fill="none" height="6" style="stroke:#C82930;stroke-width:1.0;" width="6" x="251.5" y="135.0658"/><text fill="#000000" font-family="sans-serif" font-size="11" lengthAdjust="spacing" textLength="86" x="263.5" y="142.8247">lastName: String</text><rect fill="none" height="6" style="stroke:#C82930;stroke-width:1.0;" width="6" x="251.5" y="150.0476"/><text fill="#000000" font-family="sans-serif" font-size="11" lengthAdjust="spacing" textLength="90" x="263.5" y="157.8066">username: String</text><rect fill="none" height="6" style="stroke:#C82930;stroke-width:1.0;" width="6" x="251.5" y="165.0295"/><text fill="#000000" font-family="sans-serif" font-size="11" lengthAdjust="spacing" textLength="89" x="263.5" y="172.7884">password: String</text><rect fill="none" height="6" style="stroke:#C82930;stroke-width:1.0;" width="6" x="251.5" y="180.0114"/><text fill="#000000" font-family="sans-serif" font-size="11" lengthAdjust="spacing" textLength="66" x="263.5" y="187.7703">email: String</text><rect fill="none" height="6" style="stroke:#C82930;stroke-width:1.0;" width="6" x="251.5" y="194.9933"/><text fill="#000000" font-family="sans-serif" font-size="11" lengthAdjust="spacing" textLength="135" x="263.5" y="202.7522">status: Enum&lt;UserStatus&gt;</text><rect fill="none" height="6" style="stroke:#C82930;stroke-width:1.0;" width="6" x="251.5" y="209.9752"/><text fill="#000000" font-family="sans-serif" font-size="11" lengthAdjust="spacing" textLength="71" x="263.5" y="217.7341">avatar: String</text><line style="stroke:#A80036;stroke-width:1.5;" x1="244.5" x2="403.5" y1="224.9571" y2="224.9571"/><ellipse cx="254.5" cy="235.9571" fill="#84BE84" rx="3" ry="3" style="stroke:#038048;stroke-width:1.0;"/><text fill="#000000" font-family="sans-serif" font-size="11" lengthAdjust="spacing" textLength="88" x="263.5" y="240.716">void create(User)</text><ellipse cx="254.5" cy="250.939" fill="#84BE84" rx="3" ry="3" style="stroke:#038048;stroke-width:1.0;"/><text fill="#000000" font-family="sans-serif" font-size="11" lengthAdjust="spacing" textLength="73" x="263.5" y="255.6979">void get(User)</text><ellipse cx="254.5" cy="265.9209" fill="#84BE84" rx="3" ry="3" style="stroke:#038048;stroke-width:1.0;"/><text fill="#000000" font-family="sans-serif" font-size="11" lengthAdjust="spacing" textLength="93" x="263.5" y="270.6798">void update(User)</text><ellipse cx="254.5" cy="280.9027" fill="#84BE84" rx="3" ry="3" style="stroke:#038048;stroke-width:1.0;"/><text fill="#000000" font-family="sans-serif" font-size="11" lengthAdjust="spacing" textLength="88" x="263.5" y="285.6617">void delete(User)</text><!--MD5=[56b786b736faa83d3def511ea8a11420]
class Podcaster--><rect codeLine="76" fill="#FEFECE" filter="url(#f35di7cuaturn)" height="107.9276" id="Podcaster" style="stroke:#A80036;stroke-width:1.5;" width="119" x="430" y="447.602"/><ellipse cx="458.95" cy="463.602" fill="#ADD1B2" rx="11" ry="11" style="stroke:#A80036;stroke-width:1.0;"/><path d="M458.4188,470.5239 Q456.6688,470.5239 455.5281,469.7895 Q454.4031,469.0395 453.8406,467.6957 Q453.2938,466.3364 453.2938,464.5395 Q453.2938,462.5082 453.95,461.0551 Q454.6063,459.602 455.8875,458.8207 Q457.1688,458.0395 459.0438,458.0395 Q459.9344,458.0395 460.6063,458.227 Q461.2781,458.3989 461.9656,458.7426 L461.1531,460.7582 Q460.5281,460.4457 459.9813,460.3207 Q459.45,460.1957 458.9656,460.1957 Q457.7938,460.1957 457.0906,460.727 Q456.3875,461.2582 456.0906,462.2114 Q455.7938,463.1645 455.7938,464.4301 Q455.7938,466.4457 456.5125,467.4145 Q457.2313,468.3676 458.825,468.3676 Q459.4188,468.3676 460.0438,468.2114 Q460.6688,468.0551 461.4969,467.6801 L461.4969,469.8989 Q460.7625,470.2114 459.9656,470.3676 Q459.1844,470.5239 458.4188,470.5239 Z " fill="#000000"/><text fill="#000000" font-family="sans-serif" font-size="12" lengthAdjust="spacing" textLength="56" x="476.05" y="468.258">Podcaster</text><line style="stroke:#A80036;stroke-width:1.5;" x1="431" x2="548" y1="479.602" y2="479.602"/><rect fill="none" height="6" style="stroke:#C82930;stroke-width:1.0;" width="6" x="438" y="487.602"/><text fill="#000000" font-family="sans-serif" font-size="11" lengthAdjust="spacing" textLength="32" x="450" y="495.3609">ID: int</text><rect fill="none" height="6" style="stroke:#C82930;stroke-width:1.0;" width="6" x="438" y="502.5839"/><text fill="#000000" font-family="sans-serif" font-size="11" lengthAdjust="spacing" textLength="89" x="450" y="510.3428">firstName: String</text><rect fill="none" height="6" style="stroke:#C82930;stroke-width:1.0;" width="6" x="438" y="517.5658"/><text fill="#000000" font-family="sans-serif" font-size="11" lengthAdjust="spacing" textLength="86" x="450" y="525.3247">lastName: String</text><rect fill="none" height="6" style="stroke:#C82930;stroke-width:1.0;" width="6" x="438" y="532.5476"/><text fill="#000000" font-family="sans-serif" font-size="11" lengthAdjust="spacing" textLength="93" x="450" y="540.3066">biography: String</text><line style="stroke:#A80036;stroke-width:1.5;" x1="431" x2="548" y1="547.5295" y2="547.5295"/><!--MD5=[da547346deef918ea16944ba046651ef]
class Administrator--><rect codeLine="83" fill="#FEFECE" filter="url(#f35di7cuaturn)" height="92.9457" id="Administrator" style="stroke:#A80036;stroke-width:1.5;" width="115" x="584" y="455.102"/><ellipse cx="601.7" cy="471.102" fill="#ADD1B2" rx="11" ry="11" style="stroke:#A80036;stroke-width:1.0;"/><path d="M601.1688,478.0239 Q599.4188,478.0239 598.2781,477.2895 Q597.1531,476.5395 596.5906,475.1957 Q596.0438,473.8364 596.0438,472.0395 Q596.0438,470.0082 596.7,468.5551 Q597.3563,467.102 598.6375,466.3207 Q599.9188,465.5395 601.7938,465.5395 Q602.6844,465.5395 603.3563,465.727 Q604.0281,465.8989 604.7156,466.2426 L603.9031,468.2582 Q603.2781,467.9457 602.7313,467.8207 Q602.2,467.6957 601.7156,467.6957 Q600.5438,467.6957 599.8406,468.227 Q599.1375,468.7582 598.8406,469.7114 Q598.5438,470.6645 598.5438,471.9301 Q598.5438,473.9457 599.2625,474.9145 Q599.9813,475.8676 601.575,475.8676 Q602.1688,475.8676 602.7938,475.7114 Q603.4188,475.5551 604.2469,475.1801 L604.2469,477.3989 Q603.5125,477.7114 602.7156,477.8676 Q601.9344,478.0239 601.1688,478.0239 Z " fill="#000000"/><text fill="#000000" font-family="sans-serif" font-size="12" lengthAdjust="spacing" textLength="77" x="616.3" y="475.758">Administrator</text><line style="stroke:#A80036;stroke-width:1.5;" x1="585" x2="698" y1="487.102" y2="487.102"/><rect fill="none" height="6" style="stroke:#C82930;stroke-width:1.0;" width="6" x="592" y="495.102"/><text fill="#000000" font-family="sans-serif" font-size="11" lengthAdjust="spacing" textLength="32" x="604" y="502.8609">ID: int</text><rect fill="none" height="6" style="stroke:#C82930;stroke-width:1.0;" width="6" x="592" y="510.0839"/><text fill="#000000" font-family="sans-serif" font-size="11" lengthAdjust="spacing" textLength="89" x="604" y="517.8428">firstName: String</text><rect fill="none" height="6" style="stroke:#C82930;stroke-width:1.0;" width="6" x="592" y="525.0658"/><text fill="#000000" font-family="sans-serif" font-size="11" lengthAdjust="spacing" textLength="86" x="604" y="532.8247">lastName: String</text><line style="stroke:#A80036;stroke-width:1.5;" x1="585" x2="698" y1="540.0476" y2="540.0476"/><!--MD5=[40ce7c85f33a27b949ebdd41bd3f4b23]
class Tokens--><rect codeLine="89" fill="#FEFECE" filter="url(#f35di7cuaturn)" height="182.837" id="Tokens" style="stroke:#A80036;stroke-width:1.5;" width="129" x="242.5" y="410.602"/><ellipse cx="283.15" cy="426.602" fill="#ADD1B2" rx="11" ry="11" style="stroke:#A80036;stroke-width:1.0;"/><path d="M282.6188,433.5239 Q280.8688,433.5239 279.7281,432.7895 Q278.6031,432.0395 278.0406,430.6957 Q277.4938,429.3364 277.4938,427.5395 Q277.4938,425.5082 278.15,424.0551 Q278.8063,422.602 280.0875,421.8207 Q281.3688,421.0395 283.2438,421.0395 Q284.1344,421.0395 284.8063,421.227 Q285.4781,421.3989 286.1656,421.7426 L285.3531,423.7582 Q284.7281,423.4457 284.1813,423.3207 Q283.65,423.1957 283.1656,423.1957 Q281.9938,423.1957 281.2906,423.727 Q280.5875,424.2582 280.2906,425.2114 Q279.9938,426.1645 279.9938,427.4301 Q279.9938,429.4457 280.7125,430.4145 Q281.4313,431.3676 283.025,431.3676 Q283.6188,431.3676 284.2438,431.2114 Q284.8688,431.0551 285.6969,430.6801 L285.6969,432.8989 Q284.9625,433.2114 284.1656,433.3676 Q283.3844,433.5239 282.6188,433.5239 Z " fill="#000000"/><text fill="#000000" font-family="sans-serif" font-size="12" lengthAdjust="spacing" textLength="40" x="302.85" y="431.258">Tokens</text><line style="stroke:#A80036;stroke-width:1.5;" x1="243.5" x2="370.5" y1="442.602" y2="442.602"/><rect fill="none" height="6" style="stroke:#C82930;stroke-width:1.0;" width="6" x="250.5" y="450.602"/><text fill="#000000" font-family="sans-serif" font-size="11" lengthAdjust="spacing" textLength="32" x="262.5" y="458.3609">ID: int</text><rect fill="none" height="6" style="stroke:#C82930;stroke-width:1.0;" width="6" x="250.5" y="465.5839"/><text fill="#000000" font-family="sans-serif" font-size="11" lengthAdjust="spacing" textLength="55" x="262.5" y="473.3428">userID: int</text><rect fill="none" height="6" style="stroke:#C82930;stroke-width:1.0;" width="6" x="250.5" y="480.5658"/><text fill="#000000" font-family="sans-serif" font-size="11" lengthAdjust="spacing" textLength="68" x="262.5" y="488.3247">token: String</text><rect fill="none" height="6" style="stroke:#C82930;stroke-width:1.0;" width="6" x="250.5" y="495.5476"/><text fill="#000000" font-family="sans-serif" font-size="11" lengthAdjust="spacing" textLength="103" x="262.5" y="503.3066">consumed: boolean</text><rect fill="none" height="6" style="stroke:#C82930;stroke-width:1.0;" width="6" x="250.5" y="510.5295"/><text fill="#000000" font-family="sans-serif" font-size="11" lengthAdjust="spacing" textLength="102" x="262.5" y="518.2884">created: Timestamp</text><line style="stroke:#A80036;stroke-width:1.5;" x1="243.5" x2="370.5" y1="525.5114" y2="525.5114"/><ellipse cx="253.5" cy="536.5114" fill="#84BE84" rx="3" ry="3" style="stroke:#038048;stroke-width:1.0;"/><text fill="#000000" font-family="sans-serif" font-size="11" lengthAdjust="spacing" textLength="96" x="262.5" y="541.2703">void create(Token)</text><ellipse cx="253.5" cy="551.4933" fill="#84BE84" rx="3" ry="3" style="stroke:#038048;stroke-width:1.0;"/><text fill="#000000" font-family="sans-serif" font-size="11" lengthAdjust="spacing" textLength="81" x="262.5" y="556.2522">void get(Token)</text><ellipse cx="253.5" cy="566.4752" fill="#84BE84" rx="3" ry="3" style="stroke:#038048;stroke-width:1.0;"/><text fill="#000000" font-family="sans-serif" font-size="11" lengthAdjust="spacing" textLength="101" x="262.5" y="571.2341">void update(Token)</text><ellipse cx="253.5" cy="581.4571" fill="#84BE84" rx="3" ry="3" style="stroke:#038048;stroke-width:1.0;"/><text fill="#000000" font-family="sans-serif" font-size="11" lengthAdjust="spacing" textLength="96" x="262.5" y="586.216">void delete(Token)</text><!--MD5=[7bff1aba3b0d0725284345139f4478e9]
class History--><rect codeLine="101" fill="#FEFECE" filter="url(#f35di7cuaturn)" height="182.837" id="History" style="stroke:#A80036;stroke-width:1.5;" width="157" x="463" y="86.602"/><ellipse cx="517.25" cy="102.602" fill="#ADD1B2" rx="11" ry="11" style="stroke:#A80036;stroke-width:1.0;"/><path d="M516.7188,109.5239 Q514.9688,109.5239 513.8281,108.7895 Q512.7031,108.0395 512.1406,106.6957 Q511.5938,105.3364 511.5938,103.5395 Q511.5938,101.5082 512.25,100.0551 Q512.9063,98.602 514.1875,97.8207 Q515.4688,97.0395 517.3438,97.0395 Q518.2344,97.0395 518.9063,97.227 Q519.5781,97.3989 520.2656,97.7426 L519.4531,99.7582 Q518.8281,99.4457 518.2813,99.3207 Q517.75,99.1957 517.2656,99.1957 Q516.0938,99.1957 515.3906,99.727 Q514.6875,100.2582 514.3906,101.2114 Q514.0938,102.1645 514.0938,103.4301 Q514.0938,105.4457 514.8125,106.4145 Q515.5313,107.3676 517.125,107.3676 Q517.7188,107.3676 518.3438,107.2114 Q518.9688,107.0551 519.7969,106.6801 L519.7969,108.8989 Q519.0625,109.2114 518.2656,109.3676 Q517.4844,109.5239 516.7188,109.5239 Z " fill="#000000"/><text fill="#000000" font-family="sans-serif" font-size="12" lengthAdjust="spacing" textLength="40" x="537.75" y="107.258">History</text><line style="stroke:#A80036;stroke-width:1.5;" x1="464" x2="619" y1="118.602" y2="118.602"/><rect fill="none" height="6" style="stroke:#C82930;stroke-width:1.0;" width="6" x="471" y="126.602"/><text fill="#000000" font-family="sans-serif" font-size="11" lengthAdjust="spacing" textLength="32" x="483" y="134.3609">ID: int</text><rect fill="none" height="6" style="stroke:#C82930;stroke-width:1.0;" width="6" x="471" y="141.5839"/><text fill="#000000" font-family="sans-serif" font-size="11" lengthAdjust="spacing" textLength="55" x="483" y="149.3428">userID: int</text><rect fill="none" height="6" style="stroke:#C82930;stroke-width:1.0;" width="6" x="471" y="156.5658"/><text fill="#000000" font-family="sans-serif" font-size="11" lengthAdjust="spacing" textLength="131" x="483" y="164.3247">activity: enum&lt;Activities&gt;</text><rect fill="none" height="6" style="stroke:#C82930;stroke-width:1.0;" width="6" x="471" y="171.5476"/><text fill="#000000" font-family="sans-serif" font-size="11" lengthAdjust="spacing" textLength="97" x="483" y="179.3066">description: String</text><rect fill="none" height="6" style="stroke:#C82930;stroke-width:1.0;" width="6" x="471" y="186.5295"/><text fill="#000000" font-family="sans-serif" font-size="11" lengthAdjust="spacing" textLength="53" x="483" y="194.2884">time: Date</text><line style="stroke:#A80036;stroke-width:1.5;" x1="464" x2="619" y1="201.5114" y2="201.5114"/><ellipse cx="474" cy="212.5114" fill="#84BE84" rx="3" ry="3" style="stroke:#038048;stroke-width:1.0;"/><text fill="#000000" font-family="sans-serif" font-size="11" lengthAdjust="spacing" textLength="102" x="483" y="217.2703">void create(History)</text><ellipse cx="474" cy="227.4933" fill="#84BE84" rx="3" ry="3" style="stroke:#038048;stroke-width:1.0;"/><text fill="#000000" font-family="sans-serif" font-size="11" lengthAdjust="spacing" textLength="87" x="483" y="232.2522">void get(History)</text><ellipse cx="474" cy="242.4752" fill="#84BE84" rx="3" ry="3" style="stroke:#038048;stroke-width:1.0;"/><text fill="#000000" font-family="sans-serif" font-size="11" lengthAdjust="spacing" textLength="107" x="483" y="247.2341">void update(History)</text><ellipse cx="474" cy="257.4571" fill="#84BE84" rx="3" ry="3" style="stroke:#038048;stroke-width:1.0;"/><text fill="#000000" font-family="sans-serif" font-size="11" lengthAdjust="spacing" textLength="102" x="483" y="262.216">void delete(History)</text><!--MD5=[787748180b332c0a2cec62d36be3dc2a]
class Flags--><rect codeLine="113" fill="#FEFECE" filter="url(#f35di7cuaturn)" height="137.8913" id="Flags" style="stroke:#A80036;stroke-width:1.5;" width="123" x="655" y="109.102"/><ellipse cx="697.9" cy="125.102" fill="#ADD1B2" rx="11" ry="11" style="stroke:#A80036;stroke-width:1.0;"/><path d="M697.3688,132.0239 Q695.6188,132.0239 694.4781,131.2895 Q693.3531,130.5395 692.7906,129.1957 Q692.2438,127.8364 692.2438,126.0395 Q692.2438,124.0082 692.9,122.5551 Q693.5563,121.102 694.8375,120.3207 Q696.1188,119.5395 697.9938,119.5395 Q698.8844,119.5395 699.5563,119.727 Q700.2281,119.8989 700.9156,120.2426 L700.1031,122.2582 Q699.4781,121.9457 698.9313,121.8207 Q698.4,121.6957 697.9156,121.6957 Q696.7438,121.6957 696.0406,122.227 Q695.3375,122.7582 695.0406,123.7114 Q694.7438,124.6645 694.7438,125.9301 Q694.7438,127.9457 695.4625,128.9145 Q696.1813,129.8676 697.775,129.8676 Q698.3688,129.8676 698.9938,129.7114 Q699.6188,129.5551 700.4469,129.1801 L700.4469,131.3989 Q699.7125,131.7114 698.9156,131.8676 Q698.1344,132.0239 697.3688,132.0239 Z " fill="#000000"/><text fill="#000000" font-family="sans-serif" font-size="12" lengthAdjust="spacing" textLength="29" x="718.1" y="129.758">Flags</text><line style="stroke:#A80036;stroke-width:1.5;" x1="656" x2="777" y1="141.102" y2="141.102"/><rect fill="none" height="6" style="stroke:#C82930;stroke-width:1.0;" width="6" x="663" y="149.102"/><text fill="#000000" font-family="sans-serif" font-size="11" lengthAdjust="spacing" textLength="32" x="675" y="156.8609">ID: int</text><rect fill="none" height="6" style="stroke:#C82930;stroke-width:1.0;" width="6" x="663" y="164.0839"/><text fill="#000000" font-family="sans-serif" font-size="11" lengthAdjust="spacing" textLength="72" x="675" y="171.8428">flaggedID: int</text><rect fill="none" height="6" style="stroke:#C82930;stroke-width:1.0;" width="6" x="663" y="179.0658"/><text fill="#000000" font-family="sans-serif" font-size="11" lengthAdjust="spacing" textLength="70" x="675" y="186.8247">flaggerID: int</text><rect fill="none" height="6" style="stroke:#C82930;stroke-width:1.0;" width="6" x="663" y="194.0476"/><text fill="#000000" font-family="sans-serif" font-size="11" lengthAdjust="spacing" textLength="86" x="675" y="201.8066">offense: Offense</text><rect fill="none" height="6" style="stroke:#C82930;stroke-width:1.0;" width="6" x="663" y="209.0295"/><text fill="#000000" font-family="sans-serif" font-size="11" lengthAdjust="spacing" textLength="97" x="675" y="216.7884">description: String</text><rect fill="none" height="6" style="stroke:#C82930;stroke-width:1.0;" width="6" x="663" y="224.0114"/><text fill="#000000" font-family="sans-serif" font-size="11" lengthAdjust="spacing" textLength="86" x="675" y="231.7703">time: Timestamp</text><line style="stroke:#A80036;stroke-width:1.5;" x1="656" x2="777" y1="238.9933" y2="238.9933"/><path d="M6,447.102 L6,545.6321 A0,0 0 0 0 6,545.6321 L183,545.6321 A0,0 0 0 0 183,545.6321 L183,500.367 L246.5,484.0567 L183,492.367 L183,457.102 L173,447.102 L6,447.102 A0,0 0 0 0 6,447.102 " fill="#FBFB77" filter="url(#f35di7cuaturn)" style="stroke:#A80036;stroke-width:1.0;"/><path d="M173,447.102 L173,457.102 L183,457.102 L173,447.102 " fill="#FBFB77" style="stroke:#A80036;stroke-width:1.0;"/><text fill="#000000" font-family="sans-serif" font-size="13" lengthAdjust="spacing" textLength="151" x="12" y="465.999">Tokens are secure strings</text><text fill="#000000" font-family="sans-serif" font-size="13" lengthAdjust="spacing" textLength="135" x="12" y="483.705">of text that can allow a</text><text fill="#000000" font-family="sans-serif" font-size="13" lengthAdjust="spacing" textLength="139" x="12" y="501.411">user that has forgotten</text><text fill="#000000" font-family="sans-serif" font-size="13" lengthAdjust="spacing" textLength="153" x="12" y="519.117">their password to recover</text><text fill="#000000" font-family="sans-serif" font-size="13" lengthAdjust="spacing" textLength="82" x="12" y="536.8231">their account.</text><!--MD5=[4b04aa9ae0237c9635b1b3153a1cc184]
reverse link Users to Podcaster--><path codeLine="57" d="M391.4,310.052 C416.15,358.122 442.84,409.972 462.13,447.432 " fill="none" id="Users-backto-Podcaster" style="stroke:#A80036;stroke-width:1.0;"/><polygon fill="none" points="385.14,313.182,382.21,292.202,397.59,306.772,385.14,313.182" style="stroke:#A80036;stroke-width:1.0;"/><!--MD5=[492aa0edd302017a4389883eafe7768a]
reverse link Users to Administrator--><path codeLine="58" d="M418.77,286.282 C427.59,295.072 436.57,303.622 445.5,311.602 C473.01,336.182 481.43,340.712 512.5,360.602 C535.63,375.402 546.22,372.092 566.5,390.602 C586.56,408.912 604.01,433.582 617.01,454.922 " fill="none" id="Users-backto-Administrator" style="stroke:#A80036;stroke-width:1.0;"/><polygon fill="none" points="413.62,291.032,404.6,271.852,423.61,281.222,413.62,291.032" style="stroke:#A80036;stroke-width:1.0;"/><!--MD5=[d65ac18829e36a7fc84932f8fcba002a]
link Users to Tokens--><path codeLine="59" d="M318.55,292.202 C316.6,329.102 314.44,369.762 312.56,405.302 " fill="none" id="Users-to-Tokens" style="stroke:#A80036;stroke-width:1.0;"/><polygon fill="#A80036" points="312.28,410.502,316.7633,401.7327,312.5518,405.5094,308.7752,401.2978,312.28,410.502" style="stroke:#A80036;stroke-width:1.0;"/><text fill="#000000" font-family="sans-serif" font-size="13" lengthAdjust="spacing" textLength="61" x="315.5" y="356.499">Generates</text><text fill="#000000" font-family="sans-serif" font-size="13" lengthAdjust="spacing" textLength="7" x="309.3684" y="314.7078">1</text><text fill="#000000" font-family="sans-serif" font-size="13" lengthAdjust="spacing" textLength="7" x="305.433" y="398.834">*</text><!--MD5=[fa0c9c83debdfb3eeafb9d913baadaae]
link Tokens$$$LEFT to Tokens--><!--MD5=[b01d2ea2ac3e67ce209d39b5ab2e3cd9]
link Users to UserStatus--><path codeLine="131" d="M404.54,280.842 C417.24,292.502 431,303.212 445.5,311.602 C514.32,351.442 727.22,348.222 794.5,390.602 C818.16,405.502 838.1,429.172 852.9,450.742 " fill="none" id="Users-to-UserStatus" style="stroke:#A80036;stroke-width:1.0;"/><polygon fill="#A80036" points="855.79,455.032,854.0644,445.3355,852.9902,450.8894,847.4363,449.8152,855.79,455.032" style="stroke:#A80036;stroke-width:1.0;"/><!--MD5=[a0da37843c666de0986ea4ffd10a9893]
link History to Activities--><path codeLine="132" d="M594.12,269.932 C606.64,285.662 621.17,300.502 637.5,311.602 C754.73,391.292 835.21,302.802 946.5,390.602 C965.65,405.702 979.19,428.902 988.34,450.102 " fill="none" id="History-to-Activities" style="stroke:#A80036;stroke-width:1.0;"/><polygon fill="#A80036" points="990.35,454.872,990.57,445.0256,988.4219,450.2587,983.1887,448.1106,990.35,454.872" style="stroke:#A80036;stroke-width:1.0;"/><!--MD5=[674360f5db910bb3f280b13e156ca089]
link Flags to Offense--><path codeLine="133" d="M778.11,204.442 C853.24,237.862 980.45,302.852 1063.5,390.602 C1079.77,407.792 1092.9,430.342 1102.6,450.552 " fill="none" id="Flags-to-Offense" style="stroke:#A80036;stroke-width:1.0;"/><polygon fill="#A80036" points="1104.75,455.092,1104.5416,445.2453,1102.6231,450.5669,1097.3015,448.6484,1104.75,455.092" style="stroke:#A80036;stroke-width:1.0;"/><!--MD5=[83440dc0715ab62bd6c87f9aedf0c877]
link LoginView to ForgotPasswordView--><!--MD5=[36d1910b5a07b0ef489369e37e451e1b]
link LoginView to ResetPasswordView--><!--MD5=[01b4f41f6f60f9a8d3977710a2724d82]
@startuml
package com.druid.gui.views {
   class LoginView {
      + void start()
      + void handleLoginClick()
      + void handleResetPasswordClick()
   }

   class ForgotPasswordView {
      + void start()
      + void handleSendClick()
      + void handleCancelClick()
   }

   class ResetPasswordView {
      + void start()
      + void handleUpdateClick()
      + void handleCancelClick()
   }
}

package com.druid.services {
   class UserService {
      + void update()
      + Optional<User> fetchOne(User)
      + Optional<User> authenticate()
   }

   class TokenService {
      + void generate()
      + void consume()
      + Optional<Token> fetchOne(Token)
   }
}

package com.druid.enums {
   enum UserStatus {
      ACTIVE 
      DISABLED
      BANNED
   }

   enum Activities {
      SECURITY
      BILLING
      PROFILE
   }

   enum Offense {
      HARASSMENT 
      SPAM
      VIOLENCE
   }
}

package com.druid.models #DDDDDD {

Users <|- - Podcaster
Users <|- - Administrator
Users "1" - -> "*" Tokens: Generates

   class Users {
      - ID: int 
      - firstName: String 
      - lastName: String 
      - username: String 
      - password: String 
      - email: String 
      - status: Enum<UserStatus>
      - avatar: String
      + void create(User)
      + void get(User)
      + void update(User)
      + void delete(User)
   }

   class Podcaster {
      - ID: int
      - firstName: String 
      - lastName: String 
      - biography: String 
   }

   class Administrator {
      - ID: int
      - firstName: String 
      - lastName: String 
   }

   class Tokens {
      - ID: int 
      - userID: int 
      - token: String 
      - consumed: boolean 
      - created: Timestamp 
      + void create(Token)
      + void get(Token)
      + void update(Token)
      + void delete(Token)
   }

    class History {
      - ID: int
      - userID: int
      - activity: enum<Activities>
      - description: String
      - time: Date
      + void create(History)
      + void get(History)
      + void update(History)
      + void delete(History)
    }

    class Flags {
      - ID: int
      - flaggedID: int
      - flaggerID: int
      -	offense: Offense
      - description: String
      - time: Timestamp
    }
}

note left of Tokens::token
   Tokens are secure strings 
   of text that can allow a 
   user that has forgotten 
   their password to recover 
   their account.
end note

Users - -> UserStatus
History - -> Activities
Flags - -> Offense
@enduml

PlantUML version 1.2021.16(Wed Dec 08 18:25:22 CET 2021)
(GPL source distribution)
Java Runtime: OpenJDK Runtime Environment
JVM: OpenJDK 64-Bit Server VM
Default Encoding: UTF-8
Language: en
Country: US
--></g></svg>